<?xml version="1.0" encoding="UTF-8"?>
<svg id="_レイヤー_1" data-name="レイヤー_1" xmlns="http://www.w3.org/2000/svg" version="1.1" viewBox="0 0 53.67 53.67">
  <!-- Generator: Adobe Illustrator 29.1.0, SVG Export Plug-In . SVG Version: 2.1.0 Build 142)  -->
  <defs>
    <style>
      .st0 {
        fill: none;
        stroke: #1d2088;
        stroke-miterlimit: 10;
        stroke-width: 3px;
      }

      .st1 {
        fill: #1d2088;
      }
    </style>
  </defs>
  <path class="st1" d="M34.2,27.87c-.59-4.09-2.87-8.95-7.73-8.66-3.73.22-7.28,3.39-6.79,7.32s4.86,6.96,8.72,5.9c2.15-.6,3.53-2.48,5.55-3.29,1.11-.45,1.99.14,3.1.24,1.03.09,2-.29,2.71-1.05,1.46-1.56,1.47-3.97,1.46-5.97,0-2.64-.02-5.58-.77-8.13-1.37-4.66-7.11-6.41-11.48-6.42-4.64,0-9.33,1.92-12.39,5.46s-4.53,8.16-4.04,12.72c.56,5.21,3.68,9.7,7.91,12.67,5.01,3.51,11.37,4.5,17.36,3.99,1.59-.14,1.61-2.64,0-2.5-8.1.69-17.1-1.74-21.22-9.36-3.62-6.7-.91-15.55,5.91-18.99,3.36-1.69,7.4-1.97,10.96-.77,1.78.6,3.74,1.62,4.46,3.47.78,2.01.73,4.55.79,6.68.04,1.55.36,3.91-.64,5.26-.59.8-1.42.22-2.23.06s-1.62-.09-2.4.15c-3.04.96-5.14,4.74-8.66,2.97-1.53-.77-2.85-2.42-2.64-4.22.18-1.55,1.45-2.79,2.85-3.35,4.37-1.77,6.31,3,6.81,6.47.23,1.59,2.64.91,2.41-.66h0Z"/>
  <rect class="st0" x="1.5" y="1.5" width="50.67" height="50.67" rx="18" ry="18"/>
</svg>