<?xml version="1.0" encoding="UTF-8"?>
<svg id="_レイヤー_1" xmlns="http://www.w3.org/2000/svg" version="1.1" viewBox="0 0 34.49 33.66">
  <!-- Generator: Adobe Illustrator 29.2.1, SVG Export Plug-In . SVG Version: 2.1.0 Build 116)  -->
  <defs>
    <style>
      .st0 {
        fill: #231815;
        isolation: isolate;
        opacity: .07;
      }

      .st1 {
        fill: #efda4f;
      }

      .st2 {
        fill: #323330;
      }

      .st3 {
        fill: #fffffd;
      }
    </style>
  </defs>
  <path class="st0" d="M34.49.98v32.68H.38V.98h34.11ZM32.42,3.01H2.41v28.75h30.01s0-28.75,0-28.75Z"/>
  <path class="st3" d="M33.72,0v33.02H0V0h33.72ZM31.68,2.05H2v29.04h29.68V2.05Z"/>
  <path class="st1" d="M31.68,2.05v29.04H2V2.05h29.68ZM28.2,22.16c-1.07-.98-2.43-1.33-3.67-1.94-.58-.28-1.27-.6-1.29-1.41-.04-1.48,1.9-1.5,2.7-.67.09.09.34.52.38.55.05.03.1.03.16,0l2.02-1.28c.05-.08-.31-.58-.39-.67-2.25-2.82-8.2-1.74-7.6,2.69.42,3.12,3.45,3.15,5.36,4.43,1.04.7.87,1.95-.27,2.37-1.34.48-2.95-.16-3.64-1.49h-.05c-.23.15-2.27,1.17-2.25,1.31,0,.05.41.66.48.74,1.69,2.16,5.34,2.62,7.56,1.26,2.01-1.23,2.25-4.28.5-5.89ZM18.15,15.36h-2.81v9.6c0,.67-.42,1.24-1.03,1.35-.71.13-1.31-.04-1.78-.64-.09-.11-.4-.66-.43-.68-.02-.01-.03-.02-.05-.01l-2.25,1.33c1.02,2.24,3.59,2.89,5.7,2.3,1.72-.48,2.56-1.84,2.66-3.73v-9.52h-.01Z"/>
  <path class="st2" d="M28.2,22.16c1.76,1.61,1.52,4.66-.5,5.89-2.22,1.35-5.87.89-7.56-1.26-.06-.08-.47-.69-.48-.74-.02-.14,2.02-1.16,2.25-1.31h.05c.69,1.34,2.3,1.98,3.64,1.5,1.15-.41,1.32-1.66.27-2.37-1.91-1.28-4.94-1.32-5.36-4.43-.6-4.43,5.36-5.51,7.6-2.69.07.09.44.59.39.67l-2.02,1.28s-.1.03-.16,0c-.04-.03-.29-.45-.38-.55-.8-.83-2.74-.8-2.7.67.02.81.7,1.12,1.29,1.41,1.25.61,2.6.95,3.67,1.94h0Z"/>
  <path class="st2" d="M18.15,15.36v9.52c-.1,1.89-.94,3.25-2.66,3.73-2.11.59-4.68-.06-5.7-2.3l2.25-1.33s.03,0,.05.01c.03.02.34.57.43.68.47.6,1.07.77,1.78.64.61-.11,1.03-.68,1.03-1.35v-9.6h2.82Z"/>
</svg>