<?xml version="1.0" encoding="UTF-8"?>
<svg id="_レイヤー_1" xmlns="http://www.w3.org/2000/svg" version="1.1" viewBox="0 0 36.1 35">
  <!-- Generator: Adobe Illustrator 29.2.1, SVG Export Plug-In . SVG Version: 2.1.0 Build 116)  -->
  <defs>
    <style>
      .st0 {
        fill: #231815;
        opacity: 0;
      }

      .st0, .st1 {
        isolation: isolate;
      }

      .st2 {
        fill: #fff;
      }

      .st3 {
        fill: none;
      }

      .st1 {
        opacity: 0;
      }

      .st4 {
        fill: #efda4f;
      }

      .st5 {
        fill: #fefefd;
      }

      .st6 {
        fill: #323330;
      }

      .st7 {
        fill: #fffffd;
      }

      .st8 {
        fill: #333430;
      }
    </style>
  </defs>
  <path class="st1" d="M28.1,25.5c.1.1.2.3.3.4,0-.2-.2-.3-.3-.4ZM28.1,25.5c.1.1.2.3.3.4,0-.2-.2-.3-.3-.4ZM-1.4-2v39.8h29.2l1.9-2.3.5-.6,5.6-6.9.5-.6,1.9-2.3V-2H-1.4ZM35.7,25h-.9l-.6.7-.5.5-5,5.9-.5.5-.6.8v1.9H.9V.5h34.8v24.6ZM28.4,26c0-.2-.2-.3-.3-.4.1.1.2.3.3.4Z"/>
  <g>
    <path class="st4" d="M2.9,2.6v30.2h23.8v-2.4c-1.9,0-3.8-.7-4.9-2.1,0,0-.5-.7-.5-.8,0-.2,2.1-1.2,2.3-1.4h0c.6,1.1,1.8,1.8,3,1.7v-3.2c-.1,0-.2-.1-.3-.1,0,0-.2,0-.3-.1-.9-.4-1.8-.7-2.5-1.3,0,0-.2-.1-.3-.2-.2-.2-.3-.3-.5-.5-.1-.2-.3-.4-.4-.6,0,0,0-.2-.1-.3,0-.2-.1-.4-.2-.6,0-.1,0-.2,0-.3-.1-.8,0-1.5.2-2.1,0,0,0,0,0,0,.2-.3.3-.6.5-.9,0,0,.1-.2.2-.2,1.6-1.6,4.8-1.6,6.5,0l.2.2c0,0,.1.1.2.2,0,0,.5.6.4.7h0l-2.1,1.3c0,0-.1,0-.2,0,0,0,0,0,0-.1,0,0,0-.1-.2-.2,0,0,0-.1-.1-.2h0s0,0,0,0c-.1-.2-.3-.3-.5-.3,0,0-.2,0-.2-.1-.1,0-.2,0-.4,0-.3,0-.6,0-.9,0-.2,0-.3.1-.4.2-.3.2-.4.5-.4,1,0,.8.7,1.2,1.3,1.5,1.3.6,2.7,1,3.8,2,.1.1.2.2.3.3h3.3V2.6H2.9ZM19.7,26.3c0,.2,0,.3,0,.5,0,.1,0,.2,0,.4,0,.1,0,.3,0,.4,0,.1,0,.3-.1.4,0,.2-.2.4-.3.5,0,0,0,.1-.1.2,0,0,0,.1-.1.2,0,0-.2.2-.2.3,0,0-.2.2-.3.3,0,0,0,0,0,0-.1.1-.3.2-.5.3-.3.2-.6.3-.9.4h0c-.1,0-.2,0-.4,0-.2,0-.3,0-.5,0,0,0-.2,0-.3,0h0c-1.9.1-3.9-.7-4.7-2.6h0s2.3-1.4,2.3-1.4h0s0,0,0,0c0,0,.2.3.3.5,0,.1.1.2.1.2.5.6,1.1.8,1.9.7.6-.1,1.1-.7,1.1-1.4v-10h2.9v9.9Z"/>
    <path class="st8" d="M26.7,27.8v2.5c-1.9,0-3.8-.7-4.9-2.1,0,0-.5-.7-.5-.8,0-.2,2.1-1.2,2.3-1.4h0c.6,1.1,1.8,1.8,3,1.7Z"/>
    <path class="st8" d="M30.5,23.8h0s-3.8,0-3.8,0v.9c-.1,0-.2,0-.3-.1,0,0-.2,0-.3-.1-.9-.4-1.8-.7-2.5-1.3,0,0-.2-.1-.3-.2-.2-.2-.3-.3-.5-.5-.1-.2-.3-.4-.4-.6,0,0,0-.2-.1-.3,0-.2-.1-.4-.2-.6,0-.1,0-.2,0-.3-.1-.8,0-1.5.2-2.1,0,0,0,0,0,0,.1-.3.3-.6.5-.9,0,0,.1-.2.2-.2,1.6-1.6,4.8-1.6,6.5,0l.2.2c0,0,.1.1.2.2,0,0,.5.6.4.7l-2.1,1.3c0,0-.1,0-.2,0,0,0,0,0,0-.1,0,0,0-.1-.2-.2,0,0,0-.1-.1-.2,0,0,0,0,0,0-.1-.2-.3-.3-.5-.3,0,0-.2,0-.2-.1-.1,0-.2,0-.4,0-.3,0-.6,0-.9,0-.2,0-.3.1-.4.2-.3.2-.4.5-.4,1,0,.8.7,1.2,1.3,1.5,1.3.6,2.7,1,3.8,2,.1.1.2.2.3.3Z"/>
    <path class="st8" d="M19.7,16.4v9.9c-.1,2-1,3.4-2.8,3.9-2.2.6-4.9,0-5.9-2.4l2.3-1.4s0,0,0,0c0,0,.4.6.4.7.5.6,1.1.8,1.9.7.6-.1,1.1-.7,1.1-1.4v-10h2.9Z"/>
    <path class="st5" d="M26.7,24.7h0s0,0,0,0c.4.1.7.3,1,.5h0c-.3-.2-.7-.4-1-.6ZM28.1,25.5c.1.1.2.3.3.4,0-.2-.2-.3-.3-.4ZM33.8,2.6v21.2h0V2.6h0ZM.8.4v34.3h0V.5h34.8v23.5l.2-.2V.4H.8Z"/>
    <path class="st2" d="M.9.5v34.3h25.8s1-1.2,1-1.2l.6-.8.5-.5,5-5.9.5-.5.6-.7.9-1V.5H.9ZM28.1,25.5c.1.1.2.3.3.4,0-.2-.2-.3-.3-.4ZM33.8,23.8h0s-7.1,0-7.1,0v.9c.4.2.7.3,1,.6h0c-.3-.2-.7-.4-1-.5h0v8.1H2.9V2.6h30.9v21.2Z"/>
    <polyline class="st3" points="24 38 24.2 37.8 26.1 35.5 26.7 34.8"/>
    <line class="st3" x1="37.9" y1="21.4" x2="35.9" y2="23.8"/>
  </g>
  <g>
    <path class="st0" d="M95.6,13.6v32.7h-34.1V13.6s34.1,0,34.1,0ZM93.5,15.7h-30v28.7h30s0-28.8,0-28.7Z"/>
    <path class="st7" d="M94.1,12.3v33h-33.7V12.3h33.7ZM92,14.4h-29.7v29h29.7V14.4Z"/>
    <path class="st4" d="M92.1,14.3v29h-29.7V14.3h29.7ZM88.6,34.4c-1.1-1-2.4-1.3-3.7-1.9-.6-.3-1.3-.6-1.3-1.4,0-1.5,1.9-1.5,2.7-.7,0,0,.3.5.4.5,0,0,0,0,.2,0l2-1.3c0,0-.3-.6-.4-.7-2.2-2.8-8.2-1.7-7.6,2.7.4,3.1,3.4,3.2,5.4,4.4,1,.7.9,2-.3,2.4-1.3.5-2.9-.2-3.6-1.5h0c-.2.2-2.3,1.2-2.2,1.3,0,0,.4.7.5.7,1.7,2.2,5.3,2.6,7.6,1.3,2-1.2,2.2-4.3.5-5.9ZM78.5,27.6h-2.8v9.6c0,.7-.4,1.2-1,1.3-.7.1-1.3,0-1.8-.6,0-.1-.4-.7-.4-.7,0,0,0,0,0,0l-2.2,1.3c1,2.2,3.6,2.9,5.7,2.3,1.7-.5,2.6-1.8,2.7-3.7v-9.5s0,0,0,0Z"/>
    <path class="st6" d="M88.6,34.4c1.8,1.6,1.5,4.7-.5,5.9-2.2,1.3-5.9.9-7.6-1.3,0,0-.5-.7-.5-.7,0-.1,2-1.2,2.2-1.3h0c.7,1.3,2.3,2,3.6,1.5,1.2-.4,1.3-1.7.3-2.4-1.9-1.3-4.9-1.3-5.4-4.4-.6-4.4,5.4-5.5,7.6-2.7,0,0,.4.6.4.7l-2,1.3s0,0-.2,0c0,0-.3-.5-.4-.5-.8-.8-2.7-.8-2.7.7,0,.8.7,1.1,1.3,1.4,1.2.6,2.6,1,3.7,1.9h0Z"/>
    <path class="st6" d="M78.5,27.6v9.5c0,1.9-.9,3.2-2.7,3.7-2.1.6-4.7,0-5.7-2.3l2.2-1.3s0,0,0,0c0,0,.3.6.4.7.5.6,1.1.8,1.8.6.6-.1,1-.7,1-1.3v-9.6s2.8,0,2.8,0Z"/>
  </g>
</svg>