<?xml version="1.0" encoding="UTF-8"?>
<svg id="_レイヤー_1" data-name="レイヤー_1" xmlns="http://www.w3.org/2000/svg" version="1.1" viewBox="0 0 36.06 34.99">
  <!-- Generator: Adobe Illustrator 29.2.1, SVG Export Plug-In . SVG Version: 2.1.0 Build 116)  -->
  <defs>
    <style>
      .st0 {
        fill: #231815;
        isolation: isolate;
        opacity: .07;
      }

      .st1 {
        opacity: .09;
      }

      .st2 {
        fill: none;
      }

      .st3 {
        fill: #efda4f;
      }

      .st4 {
        fill: #fefefd;
      }

      .st5 {
        fill: #323330;
      }

      .st6 {
        fill: #fffffd;
      }

      .st7 {
        fill: #333430;
      }
    </style>
  </defs>
  <path class="st1" d="M0,0v36.2h26.87l1.74-2.11.46-.56,5.14-6.24.47-.56,1.74-2.11V0H0ZM34.2,24.61h-7.34v9.48H2.16V2.25h32.04v22.36Z"/>
  <g>
    <path class="st3" d="M2.08,2.13v30.21h23.79v-2.38c-1.86.03-3.82-.67-4.94-2.11-.06-.09-.48-.72-.49-.77,0-.16,2.1-1.2,2.34-1.37h.05c.6,1.15,1.84,1.81,3.04,1.71.25-.02.5-.07.74-.16.17-.06.31-.14.44-.22.06-.04.11-.1.17-.15.39-.37.51-.89.31-1.37-.08-.16-.18-.3-.31-.44-.1-.1-.2-.19-.32-.27-.32-.22-.67-.4-1.02-.55-.2-.1-.4-.18-.61-.28-1.75-.73-3.6-1.36-3.93-3.78-.62-4.61,5.57-5.74,7.91-2.8.08.1.46.61.4.7l-2.1,1.33c-.06.03-.11.03-.17,0-.03-.02-.14-.2-.25-.35-.04-.07-.09-.14-.12-.18l-.04-.03c-.13-.15-.3-.26-.47-.35-.07-.03-.15-.07-.23-.1-.41-.16-.87-.18-1.25-.06-.16.04-.31.12-.43.22-.26.21-.43.53-.42.98.02.84.73,1.17,1.33,1.46,1.3.63,2.71.99,3.82,2.01.11.1.2.2.3.3h3.33V2.13H2.08ZM18.87,25.88c0,.16-.02.31-.04.46-.07.59-.22,1.11-.45,1.57-.06.13-.13.25-.22.37-.03.06-.07.12-.11.17-.07.1-.14.18-.22.27,0,0,0,.02-.03.03-.09.1-.18.19-.29.28-.15.13-.32.25-.5.35-.16.09-.32.16-.51.23-.13.05-.26.1-.4.14-2.19.61-4.87-.06-5.93-2.38l2.34-1.38s.04,0,.05,0c.04.03.36.6.45.72.49.61,1.12.79,1.86.66.64-.11,1.08-.7,1.08-1.4v-9.99h2.92v9.9Z"/>
    <path class="st7" d="M29.85,28.17c-.1.13-.19.26-.31.38-.22.24-.46.45-.75.62-.83.51-1.86.77-2.92.79-1.86.03-3.82-.67-4.94-2.11-.06-.09-.48-.72-.49-.77,0-.16,2.1-1.2,2.34-1.37h.05c.6,1.15,1.84,1.81,3.04,1.71.25-.02.5-.07.74-.16.17-.06.31-.14.44-.22.06-.04.11-.1.17-.15.39-.37.51-.89.31-1.37-.07-.16-.17-.3-.31-.44-.08-.1-.19-.19-.32-.28-.32-.22-.67-.4-1.03-.56-.2-.09-.4-.17-.61-.26-1.75-.73-3.6-1.36-3.93-3.78-.62-4.61,5.57-5.74,7.91-2.8.08.1.46.61.4.7l-2.1,1.33c-.06.03-.11.03-.17,0-.03-.02-.14-.2-.25-.35-.04-.07-.09-.14-.12-.18,0-.02-.02-.03-.03-.03h0c-.13-.15-.3-.26-.47-.35-.07-.03-.15-.07-.23-.1-.41-.15-.87-.17-1.25-.06-.16.04-.31.12-.43.22-.26.21-.43.53-.42.98.02.84.73,1.17,1.33,1.46,1.3.63,2.71.99,3.82,2.01.11.1.2.2.3.3,1.17,1.35,1.23,3.41.25,4.82Z"/>
    <path class="st7" d="M18.87,15.97v9.9c-.1,1.96-.97,3.38-2.76,3.87-2.19.61-4.86-.06-5.93-2.39l2.34-1.38s.04,0,.05.01c.03.02.35.59.45.71.49.62,1.12.8,1.85.66.64-.12,1.07-.7,1.07-1.4v-9.99h2.93Z"/>
    <path class="st4" d="M0,0v34.35h25.87l1.67-2,.45-.54,4.95-5.92.46-.54,1.67-2V0H0ZM32.93,23.35h-7.06v8.99H2.08V2.13h30.85v21.21Z"/>
    <line class="st2" x1="25.87" y1="34.34" x2="23.15" y2="37.6"/>
    <line class="st2" x1="37.09" y1="20.93" x2="35.06" y2="23.35"/>
  </g>
  <path class="st0" d="M56.25,38.48v32.68H22.14v-32.68h34.11ZM54.18,40.51h-30.01v28.75h30.01s0-28.75,0-28.75Z"/>
  <path class="st6" d="M94.08,12.3v33.02h-33.72V12.3h33.72ZM92.04,14.35h-29.68v29.04h29.68V14.35Z"/>
  <path class="st3" d="M92.06,14.29v29.04h-29.68V14.29h29.68ZM88.58,34.4c-1.07-.98-2.43-1.33-3.67-1.94-.58-.28-1.27-.6-1.29-1.41-.04-1.48,1.9-1.5,2.7-.67.09.09.34.52.38.55.05.03.1.03.16,0l2.02-1.28c.05-.08-.31-.58-.39-.67-2.25-2.82-8.2-1.74-7.6,2.69.42,3.12,3.45,3.15,5.36,4.43,1.04.7.87,1.95-.27,2.37-1.34.48-2.95-.16-3.64-1.49h-.05c-.23.15-2.27,1.17-2.25,1.31,0,.05.41.66.48.74,1.69,2.16,5.34,2.62,7.56,1.26,2.01-1.23,2.25-4.28.5-5.89ZM78.53,27.6h-2.81v9.6c0,.67-.42,1.24-1.03,1.35-.71.13-1.31-.04-1.78-.64-.09-.11-.4-.66-.43-.68-.02-.01-.03-.02-.05-.01l-2.25,1.33c1.02,2.24,3.59,2.89,5.7,2.3,1.72-.48,2.56-1.84,2.66-3.73v-9.52h-.01Z"/>
  <path class="st5" d="M89.83,29.55c1.76,1.61,1.52,4.66-.5,5.89-2.22,1.35-5.87.89-7.56-1.26-.06-.08-.47-.69-.48-.74-.02-.14,2.02-1.16,2.25-1.31h.05c.69,1.34,2.3,1.98,3.64,1.5,1.15-.41,1.32-1.66.27-2.37-1.91-1.28-4.94-1.32-5.36-4.43-.6-4.43,5.36-5.51,7.6-2.69.07.09.44.59.39.67l-2.02,1.28s-.1.03-.16,0c-.04-.03-.29-.45-.38-.55-.8-.83-2.74-.8-2.7.67.02.81.7,1.12,1.29,1.41,1.25.61,2.6.95,3.67,1.94h0Z"/>
  <path class="st5" d="M79.78,22.75v9.52c-.1,1.89-.94,3.25-2.66,3.73-2.11.59-4.68-.06-5.7-2.3l2.25-1.33s.03,0,.05.01c.03.02.34.57.43.68.47.6,1.07.77,1.78.64.61-.11,1.03-.68,1.03-1.35v-9.6h2.82Z"/>
</svg>