<?xml version="1.0" encoding="UTF-8"?>
<svg id="_レイヤー_1" data-name="レイヤー_1" xmlns="http://www.w3.org/2000/svg" version="1.1" viewBox="0 0 54.73 54.73">
  <!-- Generator: Adobe Illustrator 29.1.0, SVG Export Plug-In . SVG Version: 2.1.0 Build 142)  -->
  <defs>
    <style>
      .st0 {
        fill: #1d2088;
      }

      .st1 {
        fill: none;
        stroke: #1d2088;
        stroke-miterlimit: 10;
        stroke-width: 3.06px;
      }
    </style>
  </defs>
  <path class="st0" d="M9.27,10.86c.01,7.5-.12,15.01.04,22.5.05,2.49.76,5.32,3.57,5.88,1.59.32,3.4-.06,5-.18,1.99-.15,3.98-.31,5.97-.46,1.59-.12,1.61-2.62,0-2.5s-3.32.26-4.98.39-3.24.39-4.83.36c-2.94-.06-2.24-4.27-2.24-6.26-.01-6.57-.02-13.14-.03-19.72,0-1.61-2.5-1.61-2.5,0h0Z"/>
  <path class="st0" d="M29.95,24.86c.05,5.7.1,11.41.14,17.11l2.46-.33c-.47-2.84-1.05-6.11.18-8.84.85-1.89,3.04-3.76,5.25-3.25s2.95,2.83,3.35,4.73c.59,2.81.63,5.77.87,8.62.13,1.59,2.63,1.61,2.5,0-.24-2.81-.35-5.66-.8-8.44-.34-2.09-1.03-4.34-2.61-5.85-3.82-3.63-9.39-.6-11.03,3.68-1.22,3.2-.65,6.73-.11,10.01.23,1.41,2.47,1.05,2.46-.33-.05-5.7-.1-11.41-.14-17.11-.01-1.61-2.51-1.61-2.5,0h0Z"/>
  <rect class="st1" x="1.53" y="1.53" width="51.67" height="51.67" rx="18.36" ry="18.36"/>
</svg>