<?xml version="1.0" encoding="UTF-8"?>
<svg id="_レイヤー_1" data-name="レイヤー_1" xmlns="http://www.w3.org/2000/svg" version="1.1" viewBox="0 0 384 384">
  <!-- Generator: Adobe Illustrator 29.2.1, SVG Export Plug-In . SVG Version: 2.1.0 Build 116)  -->
  <defs>
    <style>
      .st0 {
        fill: #62b9e4;
      }

      .st1 {
        fill: #423778;
      }

      .st2 {
        fill: #423b7c;
      }

      .st3 {
        display: none;
      }
    </style>
  </defs>
  <g>
    <path class="st1" d="M138.6,124c-5.3,0-8-2.7-8-8.2s.7-4.6,2-6c1.3-1.4,3.2-2.1,5.7-2.1s2.2.2,3,.5,1.5.8,1.9,1.5l-1.1,1c-.4-.5-1-1-1.6-1.2s-1.4-.4-2.1-.4c-1.8,0-3.3.6-4.4,1.7-1.1,1.2-1.7,2.8-1.7,4.9,0,4.6,2.2,6.9,6.6,6.9s2.7-.3,4-.8l.4,1.3c-1.5.5-3,.8-4.6.8Z"/>
    <path class="st1" d="M151.7,124c-1.8,0-3.1-.5-4.1-1.6-1-1.1-1.5-2.6-1.5-4.5s.5-3.5,1.5-4.5,2.3-1.6,4.1-1.6,3.1.5,4.1,1.6,1.5,2.6,1.5,4.5-.5,3.5-1.5,4.5c-1,1.1-2.3,1.6-4.1,1.6ZM151.7,122.6c1.2,0,2.2-.4,2.8-1.2.7-.8,1-2,1-3.5s-.3-2.7-1-3.5-1.6-1.2-2.8-1.2-2.2.4-2.8,1.2-1,2-1,3.5.3,2.7,1,3.5c.7.8,1.6,1.2,2.8,1.2Z"/>
    <path class="st1" d="M165.8,124c-1.7,0-3-.5-3.9-1.5s-1.3-2.5-1.3-4.5.4-3.6,1.3-4.7c.9-1.1,2.2-1.6,3.9-1.6s2.1.2,2.8.7,1.1,1.1,1.3,2h.9l-.8,3.3c0-1.5-.3-2.7-1-3.4-.7-.8-1.7-1.2-3-1.2s-2.3.4-2.9,1.2-1,2-1,3.7.3,2.7,1,3.5c.7.8,1.6,1.2,2.9,1.2s2.3-.4,3-1.2c.7-.8,1-1.9,1-3.4l.9,3.2h-1c-.2.9-.6,1.6-1.3,2-.7.5-1.7.7-2.9.7ZM170.4,123.9l-.3-2.8v-14h1.6v16.7h-1.4Z"/>
    <path class="st1" d="M182.6,124c-2.2,0-3.9-.5-5-1.6s-1.8-2.6-1.8-4.6.5-3.4,1.5-4.4c1-1.1,2.4-1.6,4.2-1.6s3,.5,4,1.4c.9,1,1.4,2.3,1.4,4.1s0,.8,0,1.2h-9.7v-1.3h8.2c0-1.3-.3-2.3-1-3-.7-.7-1.6-1-2.8-1s-2.3.4-3.1,1.2c-.7.8-1.1,1.9-1.1,3.4s.5,2.8,1.4,3.6c1,.9,2.3,1.3,4.1,1.3s1,0,1.5,0c.5,0,1.1-.1,1.6-.2l.2,1.4c-.6.1-1.2.2-1.8.2-.6,0-1.2,0-1.8,0Z"/>
    <path class="st1" d="M191.1,123.7v-1.4h5.6v1.4h-5.6ZM191.8,113.3v-1.4h6.2v1.4h-6.2ZM197.1,109.4c-.4,0-.7-.1-1-.4-.3-.3-.4-.6-.4-.9s.1-.7.4-.9c.3-.3.6-.4,1-.4s.7.1,1,.4c.3.3.4.6.4.9s-.1.7-.4.9-.6.4-1,.4ZM196.4,123.7v-11.2h1.7v11.2h-1.7ZM197.8,123.7v-1.4h4.6v1.4h-4.6Z"/>
    <path class="st1" d="M210.4,124c-1.7,0-3-.5-3.9-1.5s-1.3-2.5-1.3-4.5.4-3.6,1.3-4.7c.9-1.1,2.2-1.6,3.9-1.6s2.1.2,2.8.7,1.2,1.1,1.3,2h.9l-.8,3.3c0-1.5-.3-2.7-1-3.4-.7-.8-1.7-1.2-3-1.2s-2.3.4-2.9,1.2-1,2-1,3.7.3,2.7,1,3.5c.7.8,1.6,1.2,2.9,1.2s2.3-.4,3-1.2c.7-.8,1-1.9,1-3.4l.9,3.2h-1.1c-.2.9-.6,1.6-1.3,2-.7.5-1.6.7-2.9.7ZM206.3,129.1v-1.4c0,0,3.9-.1,3.9-.1,1.6,0,2.8-.5,3.5-1.2s1.1-1.9,1.1-3.3v-8.5l.2-2.6h1.5v10.8c0,2.1-.5,3.7-1.6,4.6s-2.7,1.5-4.9,1.6h-3.6Z"/>
    <path class="st1" d="M221,123.7v-11.8h1.5v2.5c.1,0,.1,9.3.1,9.3h-1.6ZM229.6,123.7v-7.7c0-.9-.3-1.7-.8-2.2s-1.3-.8-2.3-.8c-2.6,0-3.9,1.3-3.9,4l-.8-3h.9c.2-.8.6-1.4,1.2-1.8s1.5-.6,2.6-.6,2.6.4,3.4,1.1,1.2,1.8,1.2,3.2v7.7h-1.6Z"/>
    <path class="st1" d="M235.7,123.7v-1.4h5.6v1.4h-5.6ZM236.5,113.3v-1.4h6.2v1.4h-6.2ZM241.7,109.4c-.4,0-.7-.1-1-.4-.3-.3-.4-.6-.4-.9s.1-.7.4-.9c.3-.3.6-.4,1-.4s.7.1,1,.4c.3.3.4.6.4.9s-.1.7-.4.9-.6.4-1,.4ZM241,123.7v-11.2h1.7v11.2h-1.7ZM242.4,123.7v-1.4h4.6v1.4h-4.6Z"/>
    <path class="st1" d="M249.5,113.3v-1.4h11.5v1.4h-11.5ZM253.3,118.2v-9.8h1.7v9.8h-1.7ZM258.2,124c-1.7,0-2.9-.4-3.8-1.2-.8-.8-1.2-2-1.2-3.6v-1.9h1.7v1.9c0,1.2.3,2,.9,2.6.6.6,1.5.8,2.7.8s.9,0,1.4,0c.5,0,.9,0,1.4-.2l.2,1.3c-.5,0-1.1.2-1.6.2-.5,0-1.1,0-1.6,0Z"/>
    <path class="st1" d="M271.9,124c-2.2,0-3.9-.5-5-1.6-1.2-1.1-1.8-2.6-1.8-4.6s.5-3.4,1.5-4.4c1-1.1,2.4-1.6,4.2-1.6s3,.5,4,1.4c.9,1,1.4,2.3,1.4,4.1s0,.8,0,1.2h-9.7v-1.3h8.2c0-1.3-.3-2.3-1-3-.7-.7-1.6-1-2.8-1s-2.3.4-3.1,1.2c-.7.8-1.1,1.9-1.1,3.4s.5,2.8,1.4,3.6c1,.9,2.3,1.3,4.1,1.3s1,0,1.5,0,1.1-.1,1.6-.2l.2,1.4c-.6.1-1.2.2-1.8.2-.6,0-1.2,0-1.8,0Z"/>
    <path class="st1" d="M279.4,123.7v-1.4h8.6v1.4h-8.6ZM279.9,113.3v-1.4h3.7v1.4c0,0-3.7,0-3.7,0ZM282.6,123.7v-11.8h1.3l.3,3.4v8.4h-1.7ZM284.2,118.7l-.8-3.7h.9c.3-2.2,1.6-3.3,3.9-3.3s2.4.3,3.1,1,.9,1.8.9,3.4h-1.7c0-1.1-.2-1.9-.6-2.4-.4-.5-1.1-.7-2-.7-1.3,0-2.2.5-2.9,1.5-.6,1-.9,2.4-.9,4.1Z"/>
    <path class="st1" d="M131.6,178.5v-15.8h1.6v15.8h-1.6ZM131.6,178.5v-1.4h11.3v1.4h-11.3Z"/>
    <path class="st1" d="M149.8,178.7c-1.3,0-2.3-.3-3.1-.8s-1.1-1.3-1.1-2.3.5-2.2,1.5-2.8c1-.6,2.4-.9,4.3-.9s1.7,0,2.4.1c.7,0,1.3.2,1.8.3l-.3,1.1c-.5-.2-1.2-.2-1.9-.3-.7,0-1.4,0-2.1,0-2.7,0-4.1.8-4.1,2.4s.2,1.1.7,1.4,1.1.5,2,.5,1.7-.1,2.4-.4c.7-.3,1.2-.7,1.6-1.1.4-.5.6-1,.6-1.5v-1.4l.9,3h-1.1l.3-.3c0,.6-.3,1.1-.7,1.6-.4.4-1,.8-1.7,1s-1.5.4-2.4.4ZM154.9,178.6l-.2-4.3h-.2v-2.9c0-1.2-.4-2.1-1.1-2.6-.7-.5-1.9-.8-3.4-.9h-2.8s.2-1.4.2-1.4h2.5c2.1,0,3.7.5,4.7,1.3s1.5,2.1,1.5,3.8v5.5l2.3.2v1.1h-3.5Z"/>
    <path class="st1" d="M160.4,178.5v-1.4h8.6v1.4h-8.6ZM160.9,168v-1.4h3.7v1.4c0,0-3.7,0-3.7,0ZM163.6,178.5v-11.8h1.3l.3,3.4v8.4h-1.7ZM165.2,173.4l-.8-3.7h.9c.3-2.2,1.6-3.3,3.9-3.3s2.4.3,3.1,1,.9,1.8.9,3.4h-1.7c0-1.1-.2-1.9-.6-2.4-.4-.5-1.1-.7-2-.7-1.3,0-2.2.5-2.9,1.5-.6,1-.9,2.4-.9,4.1Z"/>
    <path class="st1" d="M179.6,178.7c-1.3,0-2.3-.3-3.1-.8s-1.1-1.3-1.1-2.3.5-2.2,1.5-2.8c1-.6,2.4-.9,4.3-.9s1.7,0,2.4.1c.7,0,1.3.2,1.8.3l-.3,1.1c-.5-.2-1.2-.2-1.9-.3-.7,0-1.4,0-2.1,0-2.7,0-4.1.8-4.1,2.4s.2,1.1.7,1.4,1.1.5,2,.5,1.7-.1,2.4-.4c.7-.3,1.2-.7,1.6-1.1.4-.5.6-1,.6-1.5v-1.4l.9,3h-1.1l.3-.3c0,.6-.3,1.1-.7,1.6-.4.4-1,.8-1.7,1s-1.5.4-2.4.4ZM184.7,178.6l-.2-4.3h-.2v-2.9c0-1.2-.4-2.1-1.1-2.6-.7-.5-1.9-.8-3.4-.9h-2.8s.2-1.4.2-1.4h2.5c2.1,0,3.7.5,4.7,1.3s1.5,2.1,1.5,3.8v5.5l2.3.2v1.1h-3.5Z"/>
    <path class="st1" d="M195.2,178.5l-5.1-11.8h1.8l4.4,10.5h.1l4.4-10.5h1.8l-5.1,11.8h-2.3Z"/>
    <path class="st1" d="M212.4,178.7c-2.2,0-3.9-.5-5-1.6-1.2-1.1-1.8-2.6-1.8-4.6s.5-3.4,1.5-4.4c1-1.1,2.4-1.6,4.2-1.6s3,.5,4,1.4c.9,1,1.4,2.3,1.4,4.1s0,.8,0,1.2h-9.7v-1.3h8.2c0-1.3-.3-2.3-1-3-.7-.7-1.6-1-2.8-1s-2.3.4-3.1,1.2c-.7.8-1.1,1.9-1.1,3.4s.5,2.8,1.4,3.6c1,.9,2.3,1.3,4.1,1.3s1,0,1.5,0,1.1-.1,1.6-.2l.2,1.4c-.6.1-1.2.2-1.8.2-.6,0-1.2,0-1.8,0Z"/>
    <path class="st1" d="M220.1,163.1v-1.4h4.4v1.4h-4.4ZM228.6,178.7c-1.5,0-2.6-.4-3.3-1.1-.7-.7-1.1-1.8-1.1-3.3v-12.6h1.7v12.6c0,.7.1,1.2.3,1.7.2.4.5.8,1,1s1.1.3,1.8.3,1.5-.1,2.5-.4l.2,1.4c-.5.1-1.1.2-1.5.3-.5,0-1,0-1.6,0Z"/>
  </g>
  <g id="_レイヤー_2" data-name="レイヤー_2" class="st3">
    <path class="st0" d="M197.5,124.5c5.7,0,16.1,0,18.9-6.2,4.2-9.2-5.1-18.1-13.6-12.1s-2.7,4.5-3.9,5.1c-3,1.3-10.4,1.4-9.3-3.2,3.8-15.7,36.8-17.2,38.6,2.6s-2.3,14.8-10.5,17.9-5.2.8-7.4,2.3c-4.6,3.1-.2,9.1-10.9,7.1-3.6-.7-1.2-10.4-1.9-13.5Z"/>
    <path class="st2" d="M211.5,109.7c-4.8-4.2-8,5.5-12.3,6.4-13.4,2.7-18.8-5.7-10.3-16.3,10.6-13.3,40.7-10.7,43.6,8.1,1.6,10.3-1.4,19.8-11.3,24.3s-6.8,1.7-8,2.5c-1.8,1.2-1.2,5.8-4.7,7.3s-10,.9-12.3,0c-5.9-2.4-5.5-20.1.3-21.7s14.9.6,15.9-5,0-4.6-.9-5.4ZM197.5,124.5c.7,3.1-1.7,12.8,1.9,13.5,10.6,2,6.3-4,10.9-7.1s5-1.3,7.4-2.3c8.1-3.2,11.3-9.3,10.5-17.9-1.8-19.9-34.8-18.4-38.6-2.6s6.2,4.5,9.3,3.2,1.8-3.6,3.9-5.1c8.5-6,17.8,2.9,13.6,12.1s-13.2,6.3-18.9,6.2Z"/>
    <path class="st2" d="M197.3,145.6c3.6-.7,11.9-.8,14.3,2.5s2.6,15.1-2.2,17.1-11.2.7-13.1.4c-6.5-1.2-7.4-18.3.9-20ZM207.9,150.7c-1.5-1.2-11.2-.7-11.2,0v10.5h11.2v-10.5Z"/>
    <path class="st0" d="M207.9,150.7v10.5h-11.2v-10.5c0-.7,9.7-1.2,11.2,0Z"/>
    <path class="st0" d="M261.9,113.9c.7-.4,9.2-.2,10.4.3s15.3,15.5,15.6,16.6.2,2-.6,2.9c-2.5,1.9-13.1,15.4-14.8,15.9s-11.1.6-11.5-1c-.8-4.1,16.3-11.9,10.8-20.5s-9.6-9.2-10.5-11.3.1-2.6.5-2.9Z"/>
    <path class="st2" d="M141.2,108.9c1.8-.4,10.7-.5,12.4,0,2.5.7,4.6,4.9,4.1,7.5-.9,4.7-11.1,11.5-11.7,14.5s18.4,14.2,9.6,21.6c-2.6,2.2-12,1.1-15.7.8l-16.5-17.2c-1.9-2.1-2-5.2-1.1-7.8,4.1-3.5,14.6-18.3,18.9-19.3ZM152.5,113.4c-.7-.4-9.2-.2-10.4.3-3.9,1.8-11.4,13.6-15.6,16.6l.6,2.9c2.7,1.9,13,15.4,14.8,15.9s11.1.6,11.5-1c.8-4-16.2-12-10.8-20.5s9.6-9.2,10.5-11.3-.1-2.6-.5-2.9Z"/>
    <path class="st0" d="M152.4,114c.4.3.8,2,.5,2.8-.9,2-8.8,8.3-10.5,10.9-5.4,8.2,11.6,16,10.8,19.8-.3,1.5-9.9,1.4-11.5,1s-12-13.5-14.8-15.3l-.6-2.8c4.3-2.9,11.7-14.3,15.6-16s9.7-.7,10.3-.3Z"/>
    <path class="st2" d="M260.8,109.4c2.3-.7,11.8-.4,14,.7l17.5,19.1c.4,2.3.5,5-1,6.9-4,2.7-13.7,16.8-17.3,17.8s-13.7.6-15.5-1.4c-6.8-7.3,7.2-14.7,10-20.7-2.3-5.9-14.3-11.8-11.3-18.8s2.7-3.5,3.7-3.8ZM261.9,113.8c-.4.3-.8,2.1-.5,2.9.9,2.1,8.8,8.6,10.5,11.3,5.5,8.7-11.6,16.5-10.8,20.5s9.9,1.5,11.5,1,12.3-14,14.8-15.9c.8-.8.9-1.8.6-2.9s-14.6-16.1-15.6-16.6-9.7-.7-10.4-.3Z"/>
  </g>
  <text/>
  <text/>
  <text/>
  <text/>
</svg>