<?xml version="1.0" encoding="UTF-8"?>
<svg id="_レイヤー_1" data-name="レイヤー_1" xmlns="http://www.w3.org/2000/svg" version="1.1" xmlns:xlink="http://www.w3.org/1999/xlink" viewBox="0 0 64.83 38.54">
  <!-- Generator: Adobe Illustrator 29.1.0, SVG Export Plug-In . SVG Version: 2.1.0 Build 142)  -->
  <defs>
    <style>
      .st0 {
        fill: #9599c2;
      }

      .st1 {
        fill: #585c95;
      }

      .st2 {
        fill: #fff;
      }

      .st3 {
        fill: #5c6097;
      }

      .st4 {
        fill: #777bb2;
      }

      .st5 {
        fill: #8f93bd;
      }

      .st6 {
        fill: #484c88;
      }

      .st7 {
        fill: #767ab1;
      }

      .st8 {
        fill: #fefefe;
      }

      .st9 {
        fill: #adb1d4;
      }

      .st10 {
        fill: url(#_名称未設定グラデーション_2);
        opacity: .03;
      }

      .st11 {
        fill: #fdfdfd;
      }
    </style>
    <radialGradient id="_名称未設定グラデーション_2" data-name="名称未設定グラデーション 2" cx="-301.86" cy="244.93" fx="-301.86" fy="244.93" r="104.28" gradientTransform="translate(108.98 -38.77) scale(.25 .24)" gradientUnits="userSpaceOnUse">
      <stop offset="0" stop-color="#fff"/>
      <stop offset="1" stop-color="#000"/>
    </radialGradient>
  </defs>
  <path class="st10" d="M62.62,13.58c-2.85-4.99-9.11-9.03-17.1-11.14-3.85-1.02-8.11-1.58-12.59-1.58s-8.73.56-12.59,1.58C12.34,4.55,6.09,8.59,3.23,13.58c-1.1,1.92-1.7,3.98-1.7,6.12s.6,4.21,1.7,6.12c2.86,4.99,9.11,9.03,17.1,11.13,3.86,1.02,8.11,1.58,12.59,1.58s8.74-.56,12.59-1.58c7.99-2.1,14.24-6.14,17.1-11.13,1.1-1.92,1.7-3.98,1.7-6.12s-.6-4.2-1.7-6.12ZM42.22,34.87c-.41.09-1.1.17-1.48.29-1.33.39-3.04.4-4.46.57-.06,0-.03.06-.09.06-.41.05-.92.04-1.34.06-1.25.06-2.47.08-3.73.06-1-.02-2.15,0-3.13-.11-.06,0-.03-.06-.09-.06-1.01-.12-2.05-.18-3.02-.32-2.55-.37-4.95-.94-7.41-1.75-3.79-1.25-7.47-3.07-10.33-5.85-3.12-3.04-4.84-6.97-3.41-11.26.66-1.99,1.9-3.63,3.38-5.09,4.16-4.1,10.37-6.34,16.12-7.37,1.22-.22,2.42-.41,3.69-.54.18-.02.4,0,.57-.03.06,0,.03-.06.09-.06,1.85-.22,4.05-.19,5.92-.14.11,0,.22,0,.33,0,.15,0,.34-.03.48.03.71,0,1.63.03,2.33.11.06,0,.03.06.09.06.57.07,1.15.1,1.71.17,1.54.19,3,.45,4.51.81,1.51.35,2.89.73,4.33,1.24,4.67,1.64,9.91,4.55,12.36,9,2.56,4.64,1.15,9.36-2.46,12.94-3.89,3.85-9.64,6.08-14.95,7.2Z"/>
  <g>
    <path class="st2" d="M61.87,13.11c-2.85-4.77-9.09-8.64-17.06-10.65-3.84-.97-8.09-1.51-12.56-1.51s-8.71.54-12.56,1.51C11.73,4.47,5.49,8.33,2.64,13.11c-1.1,1.84-1.69,3.81-1.69,5.86s.6,4.02,1.69,5.86c2.85,4.77,9.09,8.64,17.06,10.65,3.85.97,8.09,1.51,12.56,1.51s8.72-.54,12.56-1.51c7.97-2.01,14.21-5.88,17.06-10.65,1.1-1.84,1.69-3.81,1.69-5.86s-.6-4.02-1.69-5.86ZM42.39,33.55c-.41.08-1.1.16-1.48.27-1.33.38-3.03.39-4.45.55-.06,0-.03.05-.09.06-.41.05-.91.03-1.33.05-1.25.06-2.47.08-3.72.06-1-.02-2.15,0-3.13-.11-.06,0-.03-.05-.09-.06-1.01-.12-2.04-.17-3.02-.3-2.55-.36-4.94-.9-7.39-1.67-3.78-1.2-7.45-2.94-10.3-5.6-3.11-2.91-4.83-6.66-3.4-10.77.66-1.91,1.89-3.47,3.38-4.87,4.15-3.92,10.35-6.06,16.08-7.05,1.22-.21,2.41-.4,3.68-.52.18-.02.39,0,.56-.02.06,0,.03-.05.09-.06,1.85-.21,4.04-.18,5.91-.13.11,0,.22,0,.32,0,.15,0,.34-.02.47.03.71,0,1.63.03,2.33.11.06,0,.03.05.09.06.56.06,1.14.1,1.7.16,1.53.18,2.99.43,4.5.77,1.51.34,2.88.7,4.32,1.18,4.66,1.57,9.88,4.35,12.33,8.61,2.55,4.44,1.15,8.96-2.46,12.38-3.88,3.68-9.61,5.82-14.91,6.88Z"/>
    <path class="st11" d="M57.28,26.72c-3.88,3.68-9.61,5.82-14.91,6.88-.41.08-1.1.16-1.48.27-1.33.38-3.03.39-4.45.55-.06,0-.03.05-.09.06-.41.05-.91.03-1.33.05-1.25.06-2.47.08-3.72.06-1-.02-2.15,0-3.13-.11-.06,0-.03-.05-.09-.06-1.01-.12-2.04-.17-3.02-.3-2.55-.36-4.94-.9-7.39-1.67-3.78-1.2-7.45-2.94-10.3-5.6-3.11-2.91-4.83-6.66-3.4-10.77.66-1.91,1.89-3.47,3.38-4.87,4.15-3.92,10.35-6.06,16.08-7.05,1.22-.21,2.41-.4,3.68-.52.18-.02.39,0,.56-.02.06,0,.03-.05.09-.06,1.85-.21,4.04-.18,5.91-.13.11,0,.22,0,.32,0,.15,0,.34-.02.47.03.71,0,1.63.03,2.33.11.06,0,.03.05.09.06.56.06,1.14.1,1.7.16,1.53.18,2.99.43,4.5.77,1.51.34,2.88.7,4.32,1.18,4.66,1.57,9.88,4.35,12.33,8.61,2.55,4.44,1.15,8.96-2.46,12.38Z"/>
    <path class="st7" d="M52.76,28.75c-3.87,2.23-8.15,3.42-12.61,4.16-1.54.25-3.02.38-4.56.46,0,.03-.04.06-.08.06-.45.08-1.15.06-1.62.05l-.1-.05-.2.04c-1.54.04-3.07.02-4.56-.04-.04,0-.07-.03-.08-.06-2.04-.04-4.19-.38-6.2-.71l-.81-.04c-1.4.05-2.81.02-4.19-.2l-.05.02c-3.78-1.2-7.45-2.94-10.3-5.6-3.11-2.91-4.83-6.66-3.4-10.77.06-.07.16,0,.2.08.16.38.33.76.51,1.12.54-1.85,1.54-3.66,3.03-4.98.04-.03.07-.06.11-.09l.02-.08c2.91-2.77,6.87-4.61,10.87-5.77,3.05-.85,6.12-1.43,9.28-1.66l.05-.05c1.78-.1,3.69-.18,5.51-.13.16,0,.31.03.47.07l.07-.03c.53-.02,1.08,0,1.62.03.24.01.48.03.71.06.04,0,.07.03.08.06.66.04,1.31.09,1.97.16.27-.01.31-.02.23-.26l-.18-.66c-.03-.08,0-.12.05-.14,1.53.18,2.99.43,4.5.77l.07.04.14,1c.13.1.28.18.46.21,1.19.25,2.39.63,3.56,1.03.04.01.08.04.12.06.04.02.08.05.11.08.04,0,.07,0,.11,0,.04,0,.07,0,.1.02,5.41,1.89,12.05,5.86,12.22,11.84.12,4.34-3.48,7.79-7.22,9.94Z"/>
    <path class="st6" d="M57.28,26.72c-3.88,3.68-9.61,5.82-14.91,6.88-.41.08-1.1.16-1.48.27-1.33.38-3.03.39-4.45.55-.06,0-.03.05-.09.06-.41.05-.91.03-1.33.05-1.25.06-2.47.08-3.72.06.03-.09.1-.15.2-.18.63-.29,1.25-.59,1.84-.91.16,0,.3-.02.44-.06.52-.01,1.2,0,1.7-.05.06,0,.03-.05.09-.06.94-.11,1.95-.09,2.9-.22,5.4-.72,10.85-2.14,15.37-5.09,3.88-2.53,7.09-6.43,5.77-11.15-1.4-4.99-7.27-8.25-12.06-9.9-.06-.04-.1-.08-.13-.14-.05-.12-.13-.96-.09-1.07,0-.02.04-.03.07-.03,4.66,1.57,9.88,4.35,12.33,8.61,2.55,4.44,1.15,8.96-2.46,12.38Z"/>
    <path class="st9" d="M34.07,4.52l-.05.05c-1.88-.06-3.73-.01-5.61.11-.11,0-.23-.01-.33,0-.06,0-.03.06-.09.06-1.49.16-2.94.22-4.36.55-.47.11-1.03.18-1.48.27-4.94,1.01-9.9,2.82-13.67,6.03-.22.19-.42.46-.67.6-.04.04-.07.08-.11.09-.06.04-.12.03-.16-.02l-.25-.99.04-.08c4.15-3.92,10.35-6.06,16.08-7.05,1.22-.21,2.41-.4,3.68-.52.18-.02.39,0,.56-.02.06,0,.03-.05.09-.06,1.85-.21,4.04-.18,5.91-.13l.07.02c.11.36.22.72.33,1.08Z"/>
    <path class="st1" d="M33.79,33.43c-.07.12-.22.07-.34.08-.19.03-.72.38-.93.48-.4.2-.85.35-1.21.59-1-.02-2.15,0-3.13-.11-.06,0-.03-.05-.09-.06-1.01-.12-2.04-.17-3.02-.3-2.55-.36-4.94-.9-7.39-1.67-.02-.09.08-.06.13-.06.69.06,1.37.17,2.07.19,1.09.03,2.11-.08,3.19.06.32.04.66.14.96.18,1.38.2,2.75.36,4.14.47.24.02.54,0,.77.03.06,0,.03.05.09.06.32.04.74.01,1.07.02,1.23.04,2.45.06,3.68.03Z"/>
    <path class="st0" d="M7.83,12.19c-.12.2-.34.36-.5.54-.79.86-1.53,1.92-2,2.96-.24.54-.39,1.1-.61,1.65-.07.01-.09-.06-.11-.1-.2-.34-.32-.76-.5-1.1l-.13-.06c.66-1.91,1.89-3.47,3.38-4.87l.27,1.07s.19-.07.21-.08Z"/>
    <path class="st5" d="M38.79,4.83s-.27.07-.33.07c-.4,0-.95-.1-1.36-.13-.19-.02-.42,0-.59-.03-.06,0-.03-.05-.09-.06-.73-.08-1.64-.08-2.39-.11l-.36-1.15c.11,0,.22,0,.32,0l.47.03c.71,0,1.63.03,2.33.11.06,0,.03.05.09.06.56.06,1.14.1,1.7.16-.03.23.27.89.2,1.06Z"/>
    <path class="st3" d="M47.55,6.96c-.93-.32-1.91-.65-2.87-.9-.26-.07-1.36-.24-1.45-.46l-.15-1.05c1.51.34,2.88.7,4.32,1.18-.02.05-.03.09-.02.14.02.26.04.65.08.89.02.07.08.13.09.21Z"/>
    <path class="st9" d="M34.47,3.44c-.15,0-.34.02-.47-.03.15,0,.34-.02.47.03Z"/>
    <path class="st8" d="M32.81,11.45c.84.02,1.69-.03,2.53,0,1.9.06,3.96.45,4.61,2.35.09.28.16.58.17.87.09.01.05-.02.06-.07.23-.88.3-1.85.52-2.73.09-.2.26-.39.51-.41,2.23.05,4.52-.09,6.74,0,3.62.13,5.61,2.13,5.43,5.55-.16,3.05-2.24,6.29-5.56,6.99-.78.16-1.62.24-2.42.26s-1.65-.02-2.47,0l-.67,3.6c-.03.11-.09.27-.18.36-.11.1-.3.18-.44.19-1.07.07-2.23-.06-3.32,0-.38-.06-.65-.36-.61-.73l.65-3.53c-.08-.02-.05.04-.08.05-.07.03-.21.05-.29.06-1.06.08-2.24-.06-3.31,0-.55-.11-.64-.46-.57-.94.33-2.26.96-4.54,1.29-6.81.03-.24.15-.87-.06-1.04-.11-.09-.4-.12-.55-.15-.11-.02-.18.03-.26-.06h-2.43s-1.6,8.42-1.6,8.42c-.06.32-.3.55-.65.58-1.05.08-2.2-.06-3.26,0-.45-.08-.64-.36-.61-.78.06-.87.41-1.87.52-2.76,0-.03.03-.09-.02-.09-.27.48-.62.95-1.01,1.36-1.09,1.15-2.33,1.84-3.96,2.1-.2.03-.47.02-.64.06-.4.08-.87.1-1.31.11-.81.02-1.63-.02-2.44,0l-.7,3.66c-.03.07-.06.17-.1.23-.11.15-.33.25-.52.26-1.08.06-2.23-.05-3.32,0-.37-.06-.6-.34-.6-.7,1.03-5.07,1.82-10.2,2.87-15.27.09-.45.1-.94.72-.99,2.2.06,4.44-.08,6.63,0,2.54.09,4.57,1.09,5.27,3.49.03.11.04.24.07.34.01.04,0,.09.06.1l1.43-7.65c.1-.26.26-.41.57-.44,1.07-.09,2.29.07,3.38,0,.39.04.61.44.54.78l-.65,3.37Z"/>
    <path d="M12.56,27.73l2.95-15.66h6.51c2.8.03,4.84,1.42,4.96,4.17.14,3.29-2.05,6.76-5.7,7.22-.61.08-1.25.1-1.86.12-.93.02-1.87-.02-2.8,0l-.77,4.15h-3.29Z"/>
    <path d="M38.35,27.73l2.96-15.64h6.53c2.68,0,4.78,1.37,4.93,3.99.13,2.3-.81,4.68-2.71,6.17-1.44,1.13-3,1.28-4.85,1.33-.92.02-1.85-.02-2.77,0l-.82,4.15h-3.27Z"/>
    <path d="M32.84,7.92l-.77,4.15c1.06.03,2.13-.03,3.18,0,1.33.04,3.19.26,3.9,1.46.34.57.39,1.24.37,1.88-.38,2.37-.82,4.73-1.28,7.09-.06.31-.11.66-.19.95,0,.03-.02.11-.06.11h-3.26s-.05-.04-.03-.06l1.29-6.79c.1-.72.31-1.63-.58-1.96-.28-.1-.59-.16-.91-.17-.97-.04-1.97.04-2.95,0l-1.7,8.97h-3.24l2.93-15.66h3.29Z"/>
    <path class="st8" d="M21.97,14.67c.1.03.36.12.49.16,1.36.49,1.13,2.23.87,3.3-.42,1.7-1.29,2.7-3.21,2.91-.25.03-.57,0-.76.09h-2.24s1.22-6.57,1.22-6.57c.84.02,1.72-.04,2.56,0,.32.01.77.05,1.07.12Z"/>
    <path class="st8" d="M47.78,14.67c.14.04.57.18.71.26,1.08.6.87,2.16.64,3.14-.4,1.71-1.27,2.76-3.2,2.97-.25.03-.57,0-.76.09h-2.27s1.23-6.55,1.23-6.55l.09-.03c1.1.08,2.5-.15,3.56.12Z"/>
    <path class="st4" d="M21.58,15.25c.24.1.6.12.84.27.7.42.46,1.75.31,2.4-.12.51-.33,1.08-.65,1.52-.65.87-1.85,1-2.91,1.04-.44.01-.88-.01-1.32,0l.99-5.26s.06-.02.09-.03c.47-.05,1.37-.02,1.87,0,.12,0,.7.04.78.06Z"/>
    <path class="st4" d="M47.37,15.25c.14.06.25.06.41.1.24.07.44.14.62.3.55.48.2,2.15,0,2.77-.56,1.68-1.67,1.99-3.43,2.04-.43.01-.86-.01-1.29,0l.98-5.28c.64.01,1.29-.03,1.94,0,.12,0,.7.04.78.06Z"/>
  </g>
</svg>