<?xml version="1.0" encoding="UTF-8"?>
<svg xmlns="http://www.w3.org/2000/svg" version="1.1" viewBox="0 0 501.46 288.49">
  <!-- Generator: Adobe Illustrator 29.1.0, SVG Export Plug-In . SVG Version: 2.1.0 Build 142)  -->
  <defs>
    <style>
      .st0, .st1, .st2, .st3, .st4, .st5, .st6, .st7, .st8, .st9, .st10, .st11, .st12, .st13, .st14, .st15, .st16, .st17, .st18, .st19, .st20 {
        stroke-miterlimit: 10;
      }

      .st0, .st1, .st10, .st20 {
        stroke-width: .99px;
      }

      .st0, .st6 {
        stroke: #2b0099;
      }

      .st0, .st6, .st21 {
        fill: #aba1ff;
      }

      .st1, .st2, .st3, .st5, .st22, .st7, .st8, .st9, .st10, .st11, .st23, .st12, .st13, .st24, .st14, .st15, .st16, .st17, .st25, .st18, .st19, .st20 {
        stroke: #1d2088;
      }

      .st1, .st5, .st22, .st7, .st8, .st9, .st10, .st11, .st23, .st12, .st13, .st24, .st15, .st16, .st17, .st25, .st19 {
        fill: none;
      }

      .st1, .st22, .st23, .st24, .st14, .st25, .st19 {
        stroke-linecap: round;
      }

      .st2, .st3, .st4, .st26, .st14, .st18, .st20 {
        fill: #fff;
      }

      .st2, .st5 {
        stroke-width: 2.02px;
      }

      .st3 {
        stroke-width: .18px;
      }

      .st4 {
        stroke: #fff;
        stroke-width: .21px;
      }

      .st6, .st23 {
        stroke-width: 1.97px;
      }

      .st22 {
        stroke-width: 2.82px;
      }

      .st22, .st23, .st24, .st25 {
        stroke-linejoin: round;
      }

      .st7 {
        stroke-width: 2.13px;
      }

      .st8 {
        stroke-width: 1.84px;
      }

      .st9 {
        stroke-width: 4.89px;
      }

      .st11 {
        stroke-width: 1.73px;
      }

      .st12 {
        stroke-width: 2.14px;
      }

      .st13, .st19 {
        stroke-width: 2.96px;
      }

      .st27 {
        fill: #2b0099;
      }

      .st24 {
        stroke-width: 1.98px;
      }

      .st14 {
        stroke-width: 2.78px;
      }

      .st15 {
        stroke-width: 1.3px;
      }

      .st28 {
        fill: #1d2088;
      }

      .st16 {
        stroke-width: 1.21px;
      }

      .st17 {
        stroke-width: 3.63px;
      }

      .st25 {
        stroke-width: 2.09px;
      }

      .st18 {
        stroke-width: 2.1px;
      }
    </style>
  </defs>
  <g id="_レイヤー_1" data-name="レイヤー_1">
    <path class="st5" d="M294.97,71.02c0,28.47-19.55,51.54-43.69,51.54-4,0-7.87-.64-11.54-1.82-12.8-4.13-23.27-14.95-28.5-29.09-2-8.91-3.27-16.84-3.57-23.56.33-7.01,1.84-13.62,4.31-19.6.41-.99.85-1.97,1.31-2.93,0,0,0,0,0,0,7.5-15.59,21.71-26.1,37.99-26.1,24.14,0,43.69,23.08,43.69,51.55Z"/>
    <path class="st2" d="M210.24,88.84c-2.34-6.32-3.64-13.3-3.64-20.64,0-.98.02-1.95.07-2.92.3,6.72,1.58,14.65,3.57,23.56Z"/>
    <ellipse class="st28" cx="242.87" cy="65.28" rx="4.72" ry="3.25"/>
    <path class="st19" d="M235.21,61.77c.54-.44,2.38-1.77,6.24-2.26,5.3-.67,10.11.8,10.83,1.03"/>
    <path class="st19" d="M267.56,60.6c.75-.39,3.19-1.51,7.17-.89,5.47.85,9.4,4.29,9.98,4.82"/>
    <path class="st14" d="M247.95,99.3c.68,1,3.15,4.37,7.53,5.45,6.37,1.57,11.16-3.11,11.63-3.59"/>
    <path class="st7" d="M268.3,119.16c1.08,5.76,2.99,12.06,6.19,18.64.6,1.23-7.56,4.89-13.01,5.13-17.73.78-32.37-2.31-41.98-5.13h0c4.39-6.3,8.79-12.6,13.18-18.9"/>
    <ellipse class="st28" cx="271.42" cy="65.28" rx="4.72" ry="3.25"/>
    <g>
      <path class="st23" d="M263.23,84.52c-.21-1.51-2.64-2.43-4.54-2.19-1.43.18-2.61,1.02-2.71,2.05"/>
      <path class="st23" d="M256.07,83.6c-1.74-.72-3.9-.46-4.55.24-.49.52-.14,1.31.94,1.88"/>
      <path class="st24" d="M265.4,86.35c1.68-.34,2.04-1.62,1.22-2.47-.61-.64-1.91-1.05-3.13-.93"/>
    </g>
    <path class="st10" d="M212.7,56.63"/>
    <path class="st8" d="M221.51,137.2c-52.62,3.54-71.95,57.32-91.05,111.42,4,16.32,71.32,11.96,70.5,8.61l9.18-26.35-31.18-2.53,45.81,3.55-7.8,28.49-11.1-3.07-4.27-1.18"/>
    <path class="st8" d="M242.87,264.58"/>
    <path class="st28" d="M466.76,157.07c.2,0,.33.11.4.2.08.1.17.27.12.51l-22.06,103.78c-.06.26-.27.45-.51.45l-116.19,2.53c-.2,0-.33-.11-.4-.2-.08-.1-.17-.28-.11-.52l23.77-103.82c.06-.26.27-.44.51-.44l114.48-2.5h.01M466.76,154.26s-.05,0-.07,0l-114.47,2.5c-1.53.03-2.85,1.12-3.19,2.63l-23.77,103.82c-.49,2.14,1.11,4.17,3.26,4.17.02,0,.05,0,.07,0l116.18-2.53c1.55-.03,2.88-1.14,3.21-2.68l22.06-103.78c.45-2.12-1.15-4.11-3.28-4.11h0Z"/>
    <line class="st22" x1="255.97" y1="264.15" x2="448.43" y2="267.81"/>
    <path class="st12" d="M227.12,237.88c7.49-1.61,28.53-5.46,39.33,2.03,1.65,1.14,4.8,3.76,4.07,4.56-1.38,1.51-15.59-4.42-16.27-3.55-.7.9,13.95,7.42,12.88,9.12-1.07,1.7-17.03-2.65-17.63-1.52-.61,1.15,15.47,6.55,14.92,7.6-.58,1.09-18.37-3.65-18.99-2.53-.63,1.14,17.41,7.27,16.95,8.11-.3.55-9.15-1.93-29.83-7.09-3.2-.8-5.88-1.46-7.78-1.93"/>
    <path class="st18" d="M292.1,240.98c-7.18-1.87-27.36-6.48-38.06.57-1.63,1.08-4.78,3.56-4.1,4.39,1.28,1.55,15.22-3.83,15.85-2.93.64.92-13.75,6.87-12.78,8.6.97,1.73,16.55-2.01,17.08-.86.54,1.17-15.19,5.95-14.69,7.01.52,1.1,17.88-2.96,18.43-1.82.56,1.16-17.09,6.6-16.67,7.44.27.56,8.91-1.58,29.08-5.96,3.12-.68,5.73-1.24,7.58-1.63"/>
    <line class="st16" x1="302.98" y1="232.91" x2="331.44" y2="232.91"/>
    <line class="st25" x1="302.98" y1="260.83" x2="302.98" y2="232.91"/>
    <polyline class="st11" points="292.44 259.98 292.44 236.3 292.44 233.76"/>
    <path class="st8" d="M342.41,205.98"/>
    <path class="st8" d="M341.36,203.2"/>
    <path class="st8" d="M220.1,140.37c23.97,22.6,42.88,22.96,55.5-4.31,27.59,4.97,50.18,25.71,66.34,66.8"/>
    <polyline class="st15" points="304.42 233.58 292.76 233.9 291.5 233.93"/>
    <line class="st23" x1="219.5" y1="139.87" x2="218.33" y2="138.28"/>
    <ellipse class="st26" cx="210.24" cy="69.87" rx="5.87" ry="8.99"/>
    <ellipse class="st26" cx="213.02" cy="72.53" rx="1.5" ry="1.52"/>
    <path class="st1" d="M211.52,68.19c-1.33,1.45-1.33,2.89,0,4.34"/>
    <path class="st1" d="M118.51,97.71"/>
    <path class="st28" d="M205.02,90.7c3.36,12.73,11.57,23.94,22.73,30.94,2.7,1.69,5.17-2.57,2.49-4.26-10.09-6.33-17.43-16.49-20.46-27.99-.81-3.06-5.56-1.76-4.75,1.31h0Z"/>
    <path class="st28" d="M227.73,116.9c-3.6,2.5-5.66,6.18-7.58,10.01-.44.88-.88,1.75-1.35,2.62s-.93,1.96-1.59,2.65c-.4.42.09-.04-.04,0-.21.07-.5.05-.72.08-.66.08-1.32.15-1.98.23-.74.09-1.49.17-2.23.26-.33.04-.66.08-.99.12-.16.02-.82.02-.64.09l1.47,1.13-.14-.26.34,1.24c-.25-3.15.1-6.48.32-9.63s.56-6.35,1.01-9.5c.79-5.57,1.66-11.58-1.46-16.63-1.66-2.69-5.93-.22-4.26,2.49,2.12,3.44,1.67,7.69,1.15,11.52-.66,4.85-1.27,9.68-1.53,14.57-.13,2.35-.37,4.83-.17,7.18.11,1.32.91,2.39,2.21,2.74,1.2.32,2.71-.13,3.92-.27,2.3-.27,5.46-.05,7.19-1.82,1.29-1.32,2.15-3.22,2.99-4.85,1.75-3.4,3.3-7.46,6.56-9.72,1.09-.76,1.59-2.16.88-3.37-.63-1.08-2.27-1.65-3.37-.88h0Z"/>
    <path class="st28" d="M206.88,102.51c.21,2.1-.24,4.04-.67,6.08s-.74,3.96-.93,5.97c-.38,4.1-.11,8.2.64,12.24.24,1.31,1.83,2.05,3.03,1.72,1.38-.38,1.96-1.72,1.72-3.03-.69-3.75-.81-7.59-.42-11.38s1.94-7.68,1.56-11.61c-.13-1.32-1.04-2.46-2.46-2.46-1.23,0-2.59,1.13-2.46,2.46h0Z"/>
    <path class="st28" d="M213.32,134.23c1.4-1.39,1.86-3.46,2.41-5.3s1.04-3.7,1.46-5.57c.89-3.9,1.5-7.86,1.88-11.84.27-2.77-4.22-3.34-4.84-.66-.46,1.99-.92,3.98-1.39,5.98s-1.06,4.1-1.28,6.2c-.2,1.86.17,3.74.63,5.54s1.66,3.91,3.86,3.91,3.36-2.07,4.33-3.69c.9-1.51,1.63-3.14,2.2-4.81.61-1.8.96-3.67,1.14-5.55s.22-4.11-1.68-5.26c-1.21-.73-2.62-.19-3.37.88-1.81,2.58-2.71,5.74-2.61,8.88s5.03,3.18,4.93,0c-.08-2.35.58-4.47,1.93-6.39l-3.37.88c-.87-.53-.65-1.56-.66-.61,0,.3-.02.6-.04.9-.03.5-.08.99-.16,1.48-.18,1.18-.49,2.35-.87,3.48-.34.99-.76,1.93-1.26,2.85-.28.52-.59,1.04-.92,1.53-.16.24-.39.48-.51.74-.21.45-.36-.07.25-.15h1.31c.12.08.23.18.33.28.23.24.24.21.04-.09,0,.14-.13-.57-.13-.57-.17-.67-.35-1.35-.44-2.03-.19-1.35.05-2.59.35-3.9.7-3.06,1.42-6.11,2.13-9.16l-4.84-.66c-.33,3.41-.87,6.79-1.61,10.14-.37,1.68-.8,3.35-1.27,5.01-.24.83-.49,1.65-.75,2.47-.18.56-.29,1.23-.67,1.6-2.26,2.24,1.23,5.72,3.49,3.49h0Z"/>
    <path class="st28" d="M212.85,110.89c3.17,0,3.18-4.93,0-4.93s-3.18,4.93,0,4.93h0Z"/>
    <path class="st28" d="M221.93,118.09c-.16.98-.32,1.96-.48,2.94-.09.55-.2,1.13-.15,1.69.04.38.07.76.21,1.11.23.58.42.96.86,1.42s1.13.72,1.74.72,1.33-.27,1.74-.72.75-1.09.72-1.74-.26-1.26-.72-1.74c-.03-.03-.06-.07-.09-.1l.39.5c-.05-.07-.1-.15-.14-.23l.25.59c-.05-.13-.09-.25-.11-.39l.09.66c-.04-.31-.02-.62.02-.93l-.09.66c.15-1.04.34-2.08.51-3.12.1-.33.12-.66.04-.98-.01-.33-.11-.63-.29-.92-.3-.51-.89-1-1.47-1.13-.63-.14-1.34-.11-1.9.25-.51.33-1.03.85-1.13,1.47h0Z"/>
    <path class="st28" d="M223.61,121.13c-.12.79-.34,1.56-.65,2.29l.25-.59c-.32.73-.72,1.42-1.2,2.05l.39-.5c-.32.42-.68.81-1.07,1.17l4.12,2.4c.59-1.56,1.18-3.12,1.77-4.69.21-.57.05-1.4-.25-1.9s-.89-1-1.47-1.13c-.63-.14-1.34-.11-1.9.25s-.89.84-1.13,1.47c-.59,1.56-1.18,3.12-1.77,4.69l-.09.66c-.01.34.06.66.21.95.2.47.54.93,1.01,1.18,1,.53,2.15.38,2.99-.39.92-.85,1.72-1.89,2.31-3s1.05-2.34,1.24-3.6c.1-.33.12-.66.04-.98-.01-.33-.11-.63-.29-.92-.3-.51-.89-1-1.47-1.13-.63-.14-1.34-.11-1.9.25-.5.32-1.04.85-1.13,1.47h0Z"/>
    <path class="st28" d="M269.4,120.42c-.18,3.47.3,7.02,1.48,10.29.57,1.58,1.16,3.62,2.84,4.34.8.34,1.43.18,2.26.14.77-.03,1.51.26,2.24.47,3.6,1.05,7.2,2.11,10.79,3.16,2.69.79,5.46,1.52,7.27,3.82l2.99-3.87c-2.81-1.2-5.64-2.41-8.23-4.06s-4.68-3.72-7.1-5.47c-1.94-1.4-3.97-2.7-5.73-4.35-.82-.77-1.58-1.58-2.18-2.54-.37-.58-1.16-1.69-.87-2.43.15-.39.87-.78,1.2-1.01.55-.37,1.09-.74,1.63-1.13,1.2-.88,2.38-1.8,3.5-2.78,2.08-1.83,3.97-3.86,5.68-6.05,3.5-4.49,5.87-9.49,7.89-14.79,2.21-5.82,4.15-11.79,7.99-16.78l-4.5-.59c1.91,7.95,2.2,16.12,2.23,24.27.01,4.12,0,8.24-.03,12.35s-.18,8.09-1.15,12.02-2.55,7.33-5.3,10.11l4.12,2.4c4.83-17.68,6.73-36.14,5.58-54.44-.17-2.64-4.2-3.51-4.84-.66-1.05,4.65-2.94,8.99-5.71,12.88-1.36,1.91-3.04,3.53-4.56,5.3-1.75,2.03-3.04,4.31-4.34,6.64-1.07,1.92-2.16,3.88-3.66,5.51s-3.36,2.47-5.17,3.67c-2.12,1.4-4.38,3.71-3.08,6.44.51,1.06,1.4,1.97,2.14,2.88.91,1.14,1.82,2.27,2.72,3.41,1.71,2.15,3.32,5.01,6.25,5.51,1.54.26,3.17.15,4.73.16s3.24.02,4.86.03c2.72.02,3.42-4.23.66-4.84-1.83-.4-3.33-1.46-4.84-2.53-1.87-1.31-3.74-2.62-5.6-3.94-1.19-.85-1.95-1.65-1.32-3.16s2.06-2.66,3.19-3.8c5.75-5.84,9.85-13.02,13.84-20.1l-4.59-1.24c.62,5.49,0,10.95-.98,16.36-.48,2.64-1.02,5.27-1.54,7.9-.27,1.34-.53,2.69-.8,4.03-.25,1.25-.36,2.65-.82,3.84l.63-1.09.05-.04,1.24-.34c-.44.01-1.39-.63-1.86-.86-.78-.37-1.56-.76-2.33-1.16s-1.53-.8-2.29-1.22c-.63-.34-1.62-.7-2.08-1.23l.63,1.09-.08-.38v1.31c.31-1.48,1.48-3.09,2.22-4.42.84-1.52,1.72-3.03,2.63-4.51,1.82-2.96,3.79-5.84,5.88-8.62l-4.59-1.24c-.46,3.62-1.37,7.2-2.62,10.62-.64,1.76-1.39,3.47-2.24,5.14s-2.35,3.55-1.2,5.51c.51.87,1.44,1.48,2.2,2.12s1.47,1.23,2.21,1.85c1.57,1.31,3.35,2.36,5.38,1.23,1.62-.9,2.51-2.64,3.24-4.27.81-1.81,1.4-3.66,1.73-5.62.16-.99-.03-1.95-.88-2.59-.72-.54-1.94-.78-2.74-.19-.89.66-1.78,1.32-2.67,1.98-.67.5-1.68.98-2.2,1.62-.82.37-.41.71,1.22,1.03-.08-.24-.14-.48-.2-.72-.09-.37-.15-.74-.19-1.11-.09-.89-.06-1.8.01-2.69.32-3.93,1.65-7.93,2.88-11.65s2.86-7.35,4.46-10.98c.84-1.91,1.44-3.75,1.64-5.83.15-1.57,0-3.23.9-4.6l-4.59-1.24c.26,8.58.54,17.43-2.48,25.61-.72,1.96-1.68,3.82-2.74,5.61-.53.89-1.04,1.8-1.79,2.52s-1.63,1.19-2.48,1.73c-3.97,2.55-7.94,5.1-11.9,7.64l3.37.88c-1.73-3.53-3.5-7.04-5.33-10.53l-2.13,3.71c4.49-.45,8.93-.4,13.43-.2,2.05.09,4.17.06,6.16-.5,1.01-.28,1.98-.72,2.88-1.25.34-.2.69-.39,1.02-.6.47-.1.51-.14.11-.13.41.17.29-.23-.36-1.22-.21,1.31.34,2.65,1.72,3.03,1.17.32,2.82-.4,3.03-1.72.45-2.86-1.77-5.26-4.71-4.94-1.37.15-2.47.88-3.65,1.53-.98.54-2.08.79-3.19.86-2.6.18-5.22-.16-7.82-.19-2.88-.03-5.76.1-8.62.39-1.87.19-3.05,1.94-2.13,3.71,1.82,3.48,3.6,6.99,5.33,10.53.57,1.16,2.31,1.56,3.37.88,4.24-2.72,8.49-5.43,12.72-8.17,2.13-1.38,3.66-2.92,4.98-5.1,1.23-2.02,2.27-4.14,3.15-6.34,3.49-8.77,3.25-18.49,2.98-27.76-.07-2.49-3.26-3.29-4.59-1.24s-1.35,4.23-1.52,6.49c-.15,2.09-.99,3.9-1.86,5.78-2.08,4.49-3.85,9.13-5.21,13.89s-2.67,9.53-1.65,14.29c.52,2.43,2.38,4.34,5.03,3.46,1.16-.39,2.09-1.22,3.06-1.93,1.02-.75,2.04-1.51,3.05-2.26l-3.62-2.78c-.19,1.16-.46,2.29-.84,3.4s-1.12,2.07-1.49,3.15c0,0-.2.25-.2.29,0,.1.82-.02.82-.02-.08-.31-1.06-.88-1.32-1.1-.49-.41-.98-.82-1.47-1.23-.37-.31-1.09-.7-1.33-1.11l.34,1.24c-.17.47-.13.45.12-.05l.21-.39c.21-.39.42-.79.62-1.18.41-.8.79-1.6,1.15-2.42.75-1.69,1.44-3.41,2.03-5.17,1.16-3.47,1.89-7.04,2.35-10.67.13-1.05-.86-2.12-1.81-2.38-1.14-.31-2.12.25-2.78,1.13-2.82,3.75-5.41,7.67-7.73,11.74-1.15,2.01-2.49,4.11-3.28,6.29-1.14,3.13,1.71,4.46,4,5.7,2.16,1.18,4.37,2.31,6.64,3.27,1.13.48,2.34.6,3.44-.06s1.41-1.95,1.65-3.15c.98-4.93,2.02-9.84,2.9-14.79,1.01-5.67,1.72-11.43,1.07-17.19-.26-2.26-3.28-3.56-4.59-1.24-2.23,3.95-4.46,7.9-7.02,11.65-1.28,1.87-2.63,3.68-4.13,5.38s-3.1,3.06-4.47,4.75-2.49,3.88-2.31,6.19c.19,2.46,1.62,4.1,3.54,5.51s4.03,2.85,6.05,4.26c1.86,1.3,3.77,2.53,6.02,3.02l.66-4.84c-2.59-.02-5.19,0-7.78-.05-.91-.01-1.2-.04-1.79-.73-.81-.94-1.56-1.94-2.33-2.91s-1.51-1.89-2.27-2.84c-.4-.51-.81-1.01-1.21-1.52-.2-.25-.41-.5-.61-.76-.18-.24-.45-.88-.26,0,.16.75.23.23.7-.15.33-.26.7-.47,1.06-.69.88-.53,1.79-.98,2.64-1.56,3.73-2.55,5.9-6.46,8.05-10.32,1.14-2.05,2.39-3.87,3.99-5.59s3-3.34,4.3-5.18c2.92-4.16,4.97-8.94,6.09-13.89l-4.84-.66c1.12,17.89-.69,35.84-5.41,53.13-.65,2.37,2.38,4.15,4.12,2.4,5.92-5.95,7.54-14.43,7.83-22.52.15-4.35.09-8.71.09-13.07s-.02-8.71-.29-13.05c-.31-5.01-.94-10.02-2.11-14.9-.55-2.28-3.31-2.14-4.5-.59-3.66,4.75-5.69,10.46-7.76,16.02s-4.23,10.66-7.85,15.19c-1.77,2.21-3.77,4.25-5.94,6.07s-5.26,3.08-6.51,5.66c-1.47,3.04.38,6.32,2.28,8.69,1.71,2.13,3.95,3.77,6.16,5.35,2.72,1.94,5.23,4.1,7.91,6.08,2.96,2.18,6.35,3.64,9.71,5.08,2.61,1.12,4.76-1.61,2.99-3.87-2.66-3.39-7.15-4.42-11.08-5.57-2.35-.69-4.69-1.37-7.04-2.06-1.12-.33-2.24-.71-3.38-.98-.61-.14-1.25-.28-1.87-.29-.27-.02-.54,0-.81.04-.91.06-.87.13.1.19l.88.88c-1.04-1.4-1.48-3.52-1.84-5.19-.4-1.9-.49-3.83-.39-5.77.16-3.17-4.77-3.16-4.93,0h0Z"/>
    <path class="st28" d="M303.11,80.24c2.21-9.43,2.28-19.28.17-28.74-1.72-7.74-4.85-17.24-13.07-20.16-1.73-.61-3.62,1.31-3.03,3.03,2.97,8.73,6.13,17.43,8.88,26.23,1.27,4.08,2.41,8.27,2.8,12.54.34,3.67.28,7.51-2.07,10.55l4.59,1.24c.83-7.48,1.35-15.04.72-22.55s-2.14-15.01-5.86-21.39c-1.94-3.32-4.88-6.13-8.9-6.3-1.78-.07-3.19,2.18-2.13,3.71,4.88,7.03,7.95,15.19,8.77,23.72.46,4.85.4,9.74.42,14.6s.03,9.8.01,14.7c-.02,5.56-.06,11.13-.12,16.69-.04,3.17,4.89,3.17,4.93,0,.11-10.13.15-20.26.11-30.4-.04-9.53.05-19.1-3.06-28.24-1.63-4.81-3.91-9.39-6.81-13.57l-2.13,3.71c3.24.14,5.07,4.37,6.13,6.9,1.66,3.94,2.7,8.16,3.31,12.38,1.24,8.61.62,17.43-.34,26.03-.12,1.06.85,2.11,1.81,2.38,1.14.31,2.11-.25,2.78-1.13,2.53-3.29,3.07-7.68,2.84-11.71-.27-4.7-1.32-9.33-2.67-13.83-2.78-9.28-6.16-18.41-9.29-27.58l-3.03,3.03c2.95,1.04,4.86,3.76,6.22,6.43,1.77,3.47,2.82,7.38,3.6,11.18,1.72,8.3,1.57,16.97-.36,25.22-.72,3.09,4.03,4.4,4.75,1.31h0Z"/>
    <path class="st28" d="M243.15,42.65c-12.3,5.66-25.52,9.27-38.98,10.62-1.56.16-1.58,2.62,0,2.46,13.93-1.4,27.51-5.1,40.23-10.96,1.44-.66.19-2.79-1.24-2.13h0Z"/>
    <path class="st28" d="M243.68,45.06c3.59-2.98,6.64-6.59,9-10.61.81-1.37-1.32-2.61-2.13-1.24-2.27,3.85-5.18,7.26-8.62,10.11-.51.43-.44,1.3,0,1.74.51.51,1.23.43,1.74,0h0Z"/>
    <path class="st28" d="M217.19,53.74c9.42.32,18.85.07,28.23-.76,2.37-.21,4.73-.44,7.09-.74,2.11-.26,4.12-.85,5.25-2.82.98-1.71,1.07-3.73,1.31-5.64.31-2.47.62-4.94.93-7.41s-3.49-3.27-4.59-1.24c-1.2,2.2-2.38,4.41-3.59,6.6-.34.61-.68,1.38-1.25,1.82-.75.57-1.95.61-2.84.76-4.95.83-9.9,1.65-14.85,2.48-2.47.41-4.97.98-7.47,1.24-.25.03-.88-.1-1.08.01-.02.01-.21-.06-.18-.09.11-.1.13.32.11.38-.17.61-.51.58.1.59.55.01,1.16-.11,1.71-.15,4.81-.36,9.67-.33,14.43-1.25s9.3-2.9,12.64-6.42c2.19-2.3-1.29-5.79-3.49-3.49-3.24,3.4-7.85,4.87-12.41,5.46-2.84.37-5.71.44-8.56.59-2.5.13-6.01-.16-8,1.63-2.2,1.98-1.43,5.48.98,6.92s5.55.46,8.13.03c5.84-.98,11.68-1.95,17.52-2.93,3.06-.51,5.81-.88,7.76-3.56,1.81-2.48,3.09-5.47,4.56-8.17l-4.59-1.24c-.27,2.14-.54,4.28-.81,6.42-.15,1.18-.07,3.14-.75,4.17-.26.23-.31.29-.16.18.18-.11.07-.09-.31.07-.34.06-.67.12-1.01.16-1.14.14-2.28.26-3.42.38-2.04.21-4.08.39-6.12.55-8.42.64-16.86.8-25.29.52-3.17-.11-3.17,4.82,0,4.93h0Z"/>
    <path class="st28" d="M258.7,38.24c1.96,6.6,9.15,8.53,15.1,9.75.77.16,1.1-1.03.33-1.19-5.47-1.12-12.42-2.77-14.24-8.89-.23-.76-1.41-.44-1.19.33h0Z"/>
    <path class="st13" d="M117.35,235.62c1.71,16.31-11.25,29.91-25.5,29.56-13.94-.35-26.07-13.98-24.17-29.9l37.7.26,11.97.08Z"/>
    <path class="st17" d="M67.07,238.39c-4.44,0-7.61,2.47-7.76,5.41-.18,3.7,4.46,8.11,10.39,8.34"/>
    <path class="st9" d="M100.92,225.89c-5.7.2,15.05-6.81-3.29-21.07-5.78-3.93,2-5.11,3.29-7.98"/>
    <path class="st9" d="M82.95,225.89c-5.7.2,15.05-6.81-3.29-21.07-5.78-3.93,2-5.11,3.29-7.98"/>
    <line class="st13" x1="0" y1="264.58" x2="491.03" y2="267.37"/>
  </g>
  <g id="_レイヤー_2" data-name="レイヤー_2">
    <g>
      <g>
        <path class="st27" d="M190.28,68.5c-6.17,17.61-10.27,35.91-12.23,54.46-.99,9.37-1.43,18.79-1.31,28.21s.44,18.2,2.15,27.06c.94,4.83,2.43,9.56,4.83,13.87s5.46,8,8.7,11.58c.53.59,1.4-.28.87-.87-2.93-3.24-5.73-6.62-7.96-10.39s-3.79-8.01-4.79-12.34c-2.01-8.71-2.35-17.89-2.54-26.8-.39-18.39,1.35-36.82,5.16-54.81,2.13-10.04,4.91-19.94,8.3-29.63.26-.75-.93-1.07-1.19-.33h0Z"/>
        <g>
          <path class="st6" d="M240.37,11.59c2.36,5.32,6.87,13.28,15.65,19.2,10.88,7.35,21.02,6.65,26.14,8.59,12.08,4.57,19.38,32.56-.88,134.35l22.94,4.96c14.46-82.77,11.87-147.11-7.45-165.25C283.47.95,269.96-.02,269.96-.02c-13.55-.97-24.07,6.15-28,9.12"/>
          <path class="st0" d="M274.23,16.49c-2.99,5.95-8.59,14.78-18.91,21.03-12.79,7.75-24.26,6.33-30.19,8.23-9.49,3.04-10.92,13.67-12.71,19.13-6.58,20-5.02,69.72,5.75,134.79-8.78,1.42-17.56,2.84-26.34,4.27-11.51-95.68-4.76-169.2,18.26-188.79,15.84-13.49,31.24-13.76,31.24-13.76,15.45,0,26.96,8.51,31.24,12.16"/>
          <path class="st21" d="M228.07,116.09c-3.6,2.5-5.66,6.18-7.58,10.01-.44.88-.88,1.75-1.35,2.62s-.93,1.96-1.59,2.65c-.4.42.09-.04-.04,0-.21.07-.5.05-.72.08-.66.08-1.32.15-1.98.23-.74.09-1.49.17-2.23.26-.33.04-.66.08-.99.12-.16.02-.82.02-.64.09l1.47,1.13-.14-.26.34,1.24c-.25-3.15.1-6.48.32-9.63s.56-6.35,1.01-9.5c.79-5.57,1.66-11.58-1.46-16.63-1.66-2.69-5.93-.22-4.26,2.49,2.12,3.44,1.67,7.69,1.15,11.52-.66,4.85-1.27,9.68-1.53,14.57-.13,2.35-.37,4.83-.17,7.18.11,1.32.91,2.39,2.21,2.74,1.2.32,2.71-.13,3.92-.27,2.3-.27,5.46-.05,7.19-1.82,1.29-1.32,2.15-3.22,2.99-4.85,1.75-3.4,3.3-7.46,6.56-9.72,1.09-.76,1.59-2.16.88-3.37-.63-1.08-2.27-1.65-3.37-.88h0Z"/>
          <path class="st21" d="M271.81,121.76c-.18,3.47.3,7.02,1.48,10.29.57,1.58,1.16,3.62,2.84,4.34.8.34,1.43.18,2.26.14.77-.03,1.51.26,2.24.47,3.6,1.05,7.2,2.11,10.79,3.16,2.69.79,5.46,1.52,7.27,3.82l2.99-3.87c-2.81-1.2-5.64-2.41-8.23-4.06s-4.68-3.72-7.1-5.47c-1.94-1.4-3.97-2.7-5.73-4.35-.82-.77-1.58-1.58-2.18-2.54-.37-.58-1.16-1.69-.87-2.43.15-.39.87-.78,1.2-1.01.55-.37,1.09-.74,1.63-1.13,1.2-.88,2.38-1.8,3.5-2.78,2.08-1.83,3.97-3.86,5.68-6.05,3.5-4.49,5.87-9.49,7.89-14.79,2.21-5.82,4.15-11.79,7.99-16.78l-4.5-.59c1.91,7.95,2.2,16.12,2.23,24.27.01,4.12,0,8.24-.03,12.35s-.18,8.09-1.15,12.02-2.55,7.33-5.3,10.11l4.12,2.4c4.83-17.68,6.73-36.14,5.58-54.44-.17-2.64-4.2-3.51-4.84-.66-1.05,4.65-2.94,8.99-5.71,12.88-1.36,1.91-3.04,3.53-4.56,5.3-1.75,2.03-3.04,4.31-4.34,6.64-1.07,1.92-2.16,3.88-3.66,5.51s-3.36,2.47-5.17,3.67c-2.12,1.4-4.38,3.71-3.08,6.44.51,1.06,1.4,1.97,2.14,2.88.91,1.14,1.82,2.27,2.72,3.41,1.71,2.15,3.32,5.01,6.25,5.51,1.54.26,3.17.15,4.73.16s3.24.02,4.86.03c2.72.02,3.42-4.23.66-4.84-1.83-.4-3.33-1.46-4.84-2.53-1.87-1.31-3.74-2.62-5.6-3.94-1.19-.85-1.95-1.65-1.32-3.16s2.06-2.66,3.19-3.8c5.75-5.84,9.85-13.02,13.84-20.1l-4.59-1.24c.62,5.49,0,10.95-.98,16.36-.48,2.64-1.02,5.27-1.54,7.9-.27,1.34-.53,2.69-.8,4.03-.25,1.25-.36,2.65-.82,3.84l.63-1.09.05-.04,1.24-.34c-.44.01-1.39-.63-1.86-.86-.78-.37-1.56-.76-2.33-1.16s-1.53-.8-2.29-1.22c-.63-.34-1.62-.7-2.08-1.23l.63,1.09-.08-.38v1.31c.31-1.48,1.48-3.09,2.22-4.42.84-1.52,1.72-3.03,2.63-4.51,1.82-2.96,3.79-5.84,5.88-8.62l-4.59-1.24c-.46,3.62-1.37,7.2-2.62,10.62-.64,1.76-1.39,3.47-2.24,5.14s-2.35,3.55-1.2,5.51c.51.87,1.44,1.48,2.2,2.12s1.47,1.23,2.21,1.85c1.57,1.31,3.35,2.36,5.38,1.23,1.62-.9,2.51-2.64,3.24-4.27.81-1.81,1.4-3.66,1.73-5.62.16-.99-.03-1.95-.88-2.59-.72-.54-1.94-.78-2.74-.19-.89.66-1.78,1.32-2.67,1.98-.67.5-1.68.98-2.2,1.62-.82.37-.41.71,1.22,1.03-.08-.24-.14-.48-.2-.72-.09-.37-.15-.74-.19-1.11-.09-.89-.06-1.8.01-2.69.32-3.93,1.65-7.93,2.88-11.65s2.86-7.35,4.46-10.98c.84-1.91,1.44-3.75,1.64-5.83.15-1.57,0-3.23.9-4.6l-4.59-1.24c.26,8.58.54,17.43-2.48,25.61-.72,1.96-1.68,3.82-2.74,5.61-.53.89-1.04,1.8-1.79,2.52s-1.63,1.19-2.48,1.73c-3.97,2.55-7.94,5.1-11.9,7.64l3.37.88c-1.73-3.53-3.5-7.04-5.33-10.53l-2.13,3.71c4.49-.45,8.93-.4,13.43-.2,2.05.09,4.17.06,6.16-.5,1.01-.28,1.98-.72,2.88-1.25.34-.2.69-.39,1.02-.6.47-.1.51-.14.11-.13.41.17.29-.23-.36-1.22-.21,1.31.34,2.65,1.72,3.03,1.17.32,2.82-.4,3.03-1.72.45-2.86-1.77-5.26-4.71-4.94-1.37.15-2.47.88-3.65,1.53-.98.54-2.08.79-3.19.86-2.6.18-5.22-.16-7.82-.19-2.88-.03-5.76.1-8.62.39-1.87.19-3.05,1.94-2.13,3.71,1.82,3.48,3.6,6.99,5.33,10.53.57,1.16,2.31,1.56,3.37.88,4.24-2.72,8.49-5.43,12.72-8.17,2.13-1.38,3.66-2.92,4.98-5.1,1.23-2.02,2.27-4.14,3.15-6.34,3.49-8.77,3.25-18.49,2.98-27.76-.07-2.49-3.26-3.29-4.59-1.24s-1.35,4.23-1.52,6.49c-.15,2.09-.99,3.9-1.86,5.78-2.08,4.49-3.85,9.13-5.21,13.89s-2.67,9.53-1.65,14.29c.52,2.43,2.38,4.34,5.03,3.46,1.16-.39,2.09-1.22,3.06-1.93,1.02-.75,2.04-1.51,3.05-2.26l-3.62-2.78c-.19,1.16-.46,2.29-.84,3.4s-1.12,2.07-1.49,3.15c0,0-.2.25-.2.29,0,.1.82-.02.82-.02-.08-.31-1.06-.88-1.32-1.1-.49-.41-.98-.82-1.47-1.23-.37-.31-1.09-.7-1.33-1.11l.34,1.24c-.17.47-.13.45.12-.05l.21-.39c.21-.39.42-.79.62-1.18.41-.8.79-1.6,1.15-2.42.75-1.69,1.44-3.41,2.03-5.17,1.16-3.47,1.89-7.04,2.35-10.67.13-1.05-.86-2.12-1.81-2.38-1.14-.31-2.12.25-2.78,1.13-2.82,3.75-5.41,7.67-7.73,11.74-1.15,2.01-2.49,4.11-3.28,6.29-1.14,3.13,1.71,4.46,4,5.7,2.16,1.18,4.37,2.31,6.64,3.27,1.13.48,2.34.6,3.44-.06s1.41-1.95,1.65-3.15c.98-4.93,2.02-9.84,2.9-14.79,1.01-5.67,1.72-11.43,1.07-17.19-.26-2.26-3.28-3.56-4.59-1.24-2.23,3.95-4.46,7.9-7.02,11.65-1.28,1.87-2.63,3.68-4.13,5.38s-3.1,3.06-4.47,4.75-2.49,3.88-2.31,6.19c.19,2.46,1.62,4.1,3.54,5.51s4.03,2.85,6.05,4.26c1.86,1.3,3.77,2.53,6.02,3.02l.66-4.84c-2.59-.02-5.19,0-7.78-.05-.91-.01-1.2-.04-1.79-.73-.81-.94-1.56-1.94-2.33-2.91s-1.51-1.89-2.27-2.84c-.4-.51-.81-1.01-1.21-1.52-.2-.25-.41-.5-.61-.76-.18-.24-.45-.88-.26,0,.16.75.23.23.7-.15.33-.26.7-.47,1.06-.69.88-.53,1.79-.98,2.64-1.56,3.73-2.55,5.9-6.46,8.05-10.32,1.14-2.05,2.39-3.87,3.99-5.59s3-3.34,4.3-5.18c2.92-4.16,4.97-8.94,6.09-13.89l-4.84-.66c1.12,17.89-.69,35.84-5.41,53.13-.65,2.37,2.38,4.15,4.12,2.4,5.92-5.95,7.54-14.43,7.83-22.52.15-4.35.09-8.71.09-13.07s-.02-8.71-.29-13.05c-.31-5.01-.94-10.02-2.11-14.9-.55-2.28-3.31-2.14-4.5-.59-3.66,4.75-5.69,10.46-7.76,16.02-2,5.39-4.23,10.66-7.85,15.19-1.77,2.21-3.77,4.25-5.94,6.07s-5.26,3.08-6.51,5.66c-1.47,3.04.38,6.32,2.28,8.69,1.71,2.13,3.95,3.77,6.16,5.35,2.72,1.94,5.23,4.1,7.91,6.08,2.96,2.18,6.35,3.64,9.71,5.08,2.61,1.12,4.76-1.61,2.99-3.87-2.66-3.39-7.15-4.42-11.08-5.57-2.35-.69-4.69-1.37-7.04-2.06-1.12-.33-2.24-.71-3.38-.98-.61-.14-1.25-.28-1.87-.29-.27-.02-.54,0-.81.04-.91.06-.87.13.1.19l.88.88c-1.04-1.4-1.48-3.52-1.84-5.19-.4-1.9-.49-3.83-.39-5.77.16-3.17-4.77-3.16-4.93,0h0Z"/>
          <path class="st21" d="M222.84,52.94c9.42.32,18.85.07,28.23-.76,2.37-.21,4.73-.44,7.09-.74,2.11-.26,4.12-.85,5.25-2.82.98-1.71,1.07-3.73,1.31-5.64.31-2.47.62-4.94.93-7.41s-3.49-3.27-4.59-1.24c-1.2,2.2-2.38,4.41-3.59,6.6-.34.61-.68,1.38-1.25,1.82-.75.57-1.95.61-2.84.76-4.95.83-9.9,1.65-14.85,2.48-2.47.41-4.97.98-7.47,1.24-.25.03-.88-.1-1.08.01-.02.01-.21-.06-.18-.09.11-.1.13.32.11.38-.17.61-.51.58.1.59.55.01,1.16-.11,1.71-.15,4.81-.36,9.67-.33,14.43-1.25s9.3-2.9,12.64-6.42c2.19-2.3-1.29-5.79-3.49-3.49-3.24,3.4-7.85,4.87-12.41,5.46-2.84.37-5.71.44-8.56.59-2.5.13-6.01-.16-8,1.63-2.2,1.98-1.43,5.48.98,6.92s5.55.46,8.13.03c5.84-.98,11.68-1.95,17.52-2.93,3.06-.51,5.81-.88,7.76-3.56,1.81-2.48,3.09-5.47,4.56-8.17l-4.59-1.24c-.27,2.14-.54,4.28-.81,6.42-.15,1.18-.07,3.14-.75,4.17-.26.23-.31.29-.16.18.18-.11.07-.09-.31.07-.34.06-.67.12-1.01.16-1.14.14-2.28.26-3.42.38-2.04.21-4.08.39-6.12.55-8.42.64-16.86.8-25.29.52-3.17-.11-3.17,4.82,0,4.93h0Z"/>
          <path class="st28" d="M259.05,37.42c1.96,6.6,9.15,8.53,15.1,9.75.77.16,1.1-1.03.33-1.19-5.47-1.12-12.42-2.77-14.24-8.89-.23-.76-1.41-.44-1.19.33h0Z"/>
          <path class="st27" d="M207.15,172.67c-1.77,10.6.6,21.78,6.68,30.67.78,1.14,2.64,4.68,4.34,2.93.68-.7.77-1.73.86-2.65.17-1.68.11-3.37-.09-5.03-.73-6.12-3.1-11.93-4.27-17.97-1.44-7.43-2.21-15-3.21-22.5-.1-.77-1.34-.78-1.23,0,.76,5.72,1.48,11.44,2.31,17.15s2.19,10.98,3.69,16.43c.74,2.7,1.42,5.45,1.61,8.25.1,1.43.16,3.01-.13,4.42-.17.82-.58,1.07-1.23.49-.53-.47-.95-1.24-1.36-1.82-2.8-4-4.84-8.51-6.05-13.25-1.4-5.48-1.67-11.22-.74-16.8.13-.78-1.06-1.11-1.19-.33h0Z"/>
          <path class="st27" d="M203.5,176.29c-2.28,6.34-3.89,12.91-4.79,19.59-.43,3.25-.81,6.58-.79,9.86,0,2.85,1.85,4.07,4.31,4.99.74.28,1.07-.91.33-1.19-1.22-.45-2.72-1.01-3.2-2.34s-.16-3.1-.07-4.48c.18-3.06.52-6.11,1.01-9.14.93-5.78,2.42-11.45,4.4-16.96.27-.75-.92-1.07-1.19-.33h0Z"/>
          <path class="st27" d="M285.66,151.86c-2.02,13.19-3.43,26.76-7.73,39.45-.5,1.46-1.05,2.9-1.62,4.34-.33.84-.65,1.9.4,2.35.87.38,1.82-.18,2.52-.66,1.15-.8,2.23-1.71,3.2-2.71,3.74-3.83,6.09-8.81,7.75-13.84,2.29-6.95,3.39-14.25,6.13-21.06.3-.74-.89-1.05-1.19-.33-4.14,10.27-4.57,22.07-11.08,31.35-1.49,2.12-3.3,4.04-5.43,5.52-.23.16-.57.48-.85.51-.56.07-.38.1-.43-.39s.68-1.7.86-2.15c.55-1.44,1.05-2.9,1.51-4.37,1.77-5.61,2.96-11.38,3.96-17.18,1.17-6.82,2.15-13.67,3.2-20.51.12-.78-1.07-1.11-1.19-.33h0Z"/>
          <path class="st27" d="M295.07,158.12c.57,14.92,1.09,30.29-4,44.57-.25.71.74.99,1.13.47,9.8-13.04,15.01-29.27,14.76-45.57-.01-.79-1.24-.79-1.23,0,.25,16.1-4.92,32.06-14.59,44.95l1.13.47c5.12-14.38,4.62-29.87,4.05-44.9-.03-.79-1.26-.79-1.23,0h0Z"/>
          <path class="st27" d="M283.86,132.78c-.33,15.97-2.66,31.88-6.97,47.26-1.23,4.38-2.62,8.72-4.16,13-.25.7.75,1.01,1.13.47,6.26-8.79,12.53-17.65,17.2-27.41.34-.71-.72-1.34-1.06-.62-4.68,9.77-10.94,18.62-17.2,27.41l1.13.47c5.4-15.06,8.9-30.78,10.39-46.71.43-4.62.69-9.25.78-13.88.02-.79-1.22-.79-1.23,0h0Z"/>
          <path class="st27" d="M249.24,34.83c-2.39,2.58-2.64,6.11-3.81,9.27-.69,1.87-1.83,3.08-3.23,4.44-1.09,1.06-1.99,2.18-2.07,3.76-.01.26.2.54.45.59,13.29,3.04,26.96-3.83,32.6-16.2.33-.72-.73-1.34-1.06-.62-5.41,11.86-18.42,18.56-31.21,15.63l.45.59c.09-1.81,1.82-2.91,2.97-4.09.97-1,1.66-2.16,2.17-3.45,1.18-3.01,1.33-6.59,3.62-9.06.54-.58-.33-1.45-.87-.87h0Z"/>
          <path class="st27" d="M249.67,33.75c-3.11,1.2-4.44,4.23-5.65,7.11-.78,1.84-1.57,3.66-2.8,5.25s-2.92,3.07-4.7,4.2c-3.93,2.5-8.5,3.62-13.05,4.33-1.24.19-2.48.35-3.72.51-.4.05-1.39.36-1.75.2l-.39-.4c-.39-.17-.49-.4-.3-.71.03-.3.34-.67.49-.92,1.24-2.01,2.57-3.96,3.93-5.89,3.21-4.56,6.7-8.91,10.42-13.06l-.97-.75c-1.94,3.33-2.42,7.24-4.19,10.63-.95,1.81-2.28,3.14-4.1,4.06s-3.85,1.56-5.44,2.97c-.59.53.28,1.4.87.87,1.69-1.51,3.93-2.03,5.87-3.14,1.59-.91,2.83-2.26,3.72-3.85,1.92-3.45,2.36-7.51,4.35-10.92.35-.59-.49-1.28-.97-.75-3.54,3.94-6.87,8.07-9.96,12.38-1.55,2.16-3.06,4.37-4.46,6.63-.72,1.16-1.67,3.34.23,3.98,1.01.34,2.32-.06,3.34-.19,1.35-.17,2.7-.35,4.04-.57,2.64-.44,5.27-1.02,7.79-1.96,4.08-1.52,7.9-3.98,10.42-7.59,1.34-1.91,2.1-4.12,3.05-6.24s2.06-4.15,4.25-5c.73-.28.41-1.47-.33-1.19h0Z"/>
          <path class="st28" d="M202.8,178.78c-2.74,5.76-5.69,11.96-5.33,18.5.29,5.21,2.65,10.54,7.39,13.11.58.31,1.35.15,1.69-.44,2.06-3.64,3.22-7.64,3.44-11.81.09-1.58-2.38-1.58-2.46,0-.2,3.73-1.26,7.32-3.11,10.57l1.69-.44c-4.19-2.28-6.12-7.11-6.2-11.7-.1-5.86,2.56-11.37,5.02-16.54.68-1.43-1.45-2.68-2.13-1.24h0Z"/>
          <path class="st21" d="M204.13,94.65c3.38,6.37,7.15,12.53,11.33,18.41,1.02,1.44,2.07,2.86,3.13,4.26.22.29.41.69.67.94.32.31-.05.18.12-.03-.33.42-.82.8-1.2,1.18-1.13,1.14-2.26,2.35-3.07,3.74-.41.71-.77,1.52-.97,2.31-.08.31-.13.63-.18.94-.03.19-.06.38-.1.57-.04.63.49.56,1.58-.22l.88.88c-.28-.37-.06-.12-.07.14,0-.28-.01-.56.01-.84.03-.37.1-.72.19-1.08.24-.95.64-1.79,1.19-2.61.99-1.47,2.49-2.53,4.19-3.01l-3.03-3.03c-.8,2.2-.89,4.42-.56,6.71.25,1.71,2.36,2.07,3.62,1.47,1.64-.77,2.87-1.94,3.95-3.37l-4.26-2.49c-.69,1.14-1.38,2.28-2.07,3.41-.29.47-.92,1.17-1.04,1.71-.47.59-.17.58.91-.04.02.01.01,0-.02-.01,0,.18-.56-1.52-.21-.46-.15-.48-.17-1.02-.23-1.52-.16-1.25-.47-2.42-1.16-3.49-1.03-1.59-2.49-2.68-3.03-4.56-.57-2.02-.78-4.1-1.5-6.08s-1.7-3.89-2.45-5.88-1.1-3.98-.99-6.17c.22-4.31.75-8.94-2.65-12.26-1.03-1-3.21-1-3.87.5-2.34,5.31,1.22,10.48,3.82,14.98s5.65,9.3,8.78,13.75c.76,1.08,1.53,2.15,2.32,3.21s1.59,2.25,2.76,2.97,2.84,1.02,4.1.28,1.7-2.38,1.61-3.69c-.2-2.81-2.32-4.05-4.28-5.65s-3.39-3.64-4.93-5.51c-3.49-4.23-6.75-8.79-8.24-14.13-.63-2.26-4.22-2.43-4.75,0-.89,4.05-1.43,8.2-1.57,12.35-.12,3.9-.11,8.11,1.78,11.64,1.68,3.14,5.08,5.43,8.72,4.99,1.97-.24,3.76-1.15,5.69-1.58s3.84-.5,5.73-.23l-1.09-4.12c-.76.78-3.15-.72-4.01-1.14-2.28-1.12-4.56-2.25-6.84-3.37-2.83-1.4-5.34,2.85-2.49,4.26s5.79,2.99,8.76,4.3c2.64,1.17,5.84,1.75,8.06-.56,1.15-1.19.84-3.85-1.09-4.12-3.65-.51-7.25-.28-10.75.92-1.21.42-2.6,1.11-3.89.62-1.14-.43-1.99-1.42-2.55-2.46-1.47-2.75-1.21-6.38-1.1-9.39.13-3.64.6-7.24,1.38-10.8h-4.75c1.5,5.36,4.5,9.99,7.9,14.32,1.62,2.07,3.31,4.12,5.08,6.06.95,1.04,2.01,1.87,3.14,2.7.36.27.69.54,1.01.85.1.09.12.26.17.36-.03-.06.38-.68-.07,0l1.47-1.13c.44-.11.34.13.24-.08s-.4-.42-.55-.61c-.43-.53-.82-1.12-1.22-1.67-.87-1.19-1.72-2.4-2.56-3.61-1.72-2.5-3.38-5.04-4.97-7.61s-3.04-5.07-4.47-7.66c-.99-1.79-3.05-4.79-2.1-6.95l-3.87.5c2.39,2.34,1.26,6.53,1.18,9.47-.11,4.12,1.53,7.58,3.09,11.28.69,1.63,1.18,3.29,1.52,5.03.36,1.88.75,3.81,1.84,5.43.84,1.24,2.28,2.28,2.66,3.76.52,2,.33,3.87,1.93,5.45s4.16,1.93,5.88.32c.85-.8,1.4-1.98,2-2.97.69-1.14,1.38-2.28,2.07-3.41s.25-2.71-.88-3.37c-1.27-.74-2.56-.18-3.37.88-.56.74-1.36,1.21-2.18,1.6l3.62,1.47c-.2-1.4.08-2.78.56-4.09.66-1.8-1.33-3.51-3.03-3.03-4.04,1.14-7.19,4.28-8.57,8.22-.64,1.83-1.1,4.44-.07,6.2,1.49,2.54,5.08,1.98,6.29-.48.48-.97.45-2.01.81-3,.31-.85.87-1.59,1.47-2.26,1.42-1.59,3.52-3.02,3.79-5.29.3-2.49-1.69-4.4-3.05-6.25-1.45-1.98-2.86-3.99-4.22-6.03-3.11-4.66-5.97-9.48-8.59-14.43-1.49-2.8-5.74-.32-4.26,2.49h0Z"/>
          <path class="st21" d="M187.17,87.92c-3.6,14.39-6.22,29.01-7.86,43.75-1.5,13.45-2.11,27.06-.15,40.5,1.1,7.53,3.13,14.85,6.19,21.82.53,1.22,2.32,1.5,3.37.88,1.26-.74,1.42-2.15.88-3.37-5.19-11.86-6.82-24.94-6.77-37.79.05-13.62,1.75-27.27,4.06-40.67,1.38-8,3.07-15.94,5.03-23.81.77-3.08-3.98-4.39-4.75-1.31h0Z"/>
          <path class="st21" d="M282.67,181.48c4.07-8.16,8.14-16.31,12.21-24.47,1.41-2.83-2.84-5.33-4.26-2.49-4.07,8.16-8.14,16.31-12.21,24.47-1.41,2.83,2.84,5.33,4.26,2.49h0Z"/>
          <path class="st21" d="M299.77,183.6c1.21-6.28,2.42-12.56,3.62-18.84l-4.84-.66c0,9.04-1.75,18.08-5.28,26.42l4.5,1.9c4.5-17.78,6.16-36.24,4.87-54.53-.09-1.33-1.07-2.46-2.46-2.46-1.26,0-2.56,1.13-2.46,2.46,1.26,17.88-.3,35.85-4.7,53.22-.3,1.18.28,2.45,1.43,2.91,1.02.41,2.59.14,3.08-1.01,3.88-9.17,5.94-18.94,5.95-28.91,0-2.7-4.3-3.45-4.84-.66-1.21,6.28-2.42,12.56-3.62,18.84-.25,1.31.37,2.66,1.72,3.03,1.21.33,2.78-.41,3.03-1.72h0Z"/>
        </g>
      </g>
      <g>
        <ellipse class="st20" cx="206.95" cy="77.05" rx="5.87" ry="8.99"/>
        <ellipse class="st20" cx="209.74" cy="79.71" rx="1.5" ry="1.52"/>
        <path class="st1" d="M208.24,75.37c-1.33,1.45-1.33,2.89,0,4.34"/>
      </g>
    </g>
    <path class="st28" d="M219.8,229.6c.14-.45.48-.76.93-.91.53-.17,1.07-.14,1.64.04.27.08.49.19.76.37.16.11.44.37.54.52.5.73.73,1.59.79,2.47.07,1.06-.05,2.13-.19,3.18-.05.33.08.66.43.76.29.08.71-.1.76-.43.29-2.15.59-4.61-.67-6.52-.9-1.37-2.75-2.05-4.33-1.6-.89.26-1.58.89-1.85,1.78-.24.76.95,1.08,1.19.33h0Z"/>
    <path class="st28" d="M252.02,180.57c.79,0,.79-1.23,0-1.23s-.79,1.23,0,1.23h0Z"/>
    <path class="st28" d="M252.77,183.18c3.17,0,3.18-4.93,0-4.93s-3.18,4.93,0,4.93h0Z"/>
    <path class="st28" d="M253.52,212.83c3.17,0,3.18-4.93,0-4.93s-3.18,4.93,0,4.93h0Z"/>
    <g>
      <ellipse class="st28" cx="400.99" cy="209.98" rx="8.79" ry="8.87"/>
      <path class="st28" d="M396.68,194.48c.19,2.74.1,5.49-.26,8.22-.04.29.27.53.54.54.32,0,.5-.25.54-.54.36-2.72.45-5.47.26-8.22-.05-.69-1.12-.69-1.07,0h0Z"/>
      <path class="st28" d="M397.31,194.08c1.17,2.35.91,5.18-.57,7.33l.93.54c.5-.92.92-1.88,1.24-2.88.16-.48.29-.98.4-1.48.11-.47.21-.97.02-1.43-.31-.74-1.41-1.03-1.89-.28-.51.81-.33,1.96.07,2.77.15.3.63.36.84.11.86-1,.17-2.04-.32-3.02-.28-.56-.15-1.16-.27-1.75-.11-.51-.4-.97-.88-1.2-.62-.29-1.17.64-.54.93.34.16.39.48.41.82.02.47.02.92.19,1.36.2.5,1.12,1.55.65,2.09l.84.11c-.13-.27-.21-.55-.22-.85,0-.16,0-.65.07-.75-.03.04.04-.05.07.05.03.13.02.25,0,.38-.04.29-.13.59-.2.88-.32,1.25-.8,2.44-1.42,3.58-.33.61.54,1.11.93.54,1.7-2.48,1.91-5.73.57-8.42-.31-.62-1.23-.08-.93.54h0Z"/>
      <path class="st28" d="M397.25,194.02c.69,0,.69-1.07,0-1.07s-.69,1.07,0,1.07h0Z"/>
      <path class="st28" d="M399.67,201.65c1.94-1.17,3.61-2.81,5.21-4.4s3.19-3.35,4.65-5.15l-.9-.52c-.46,2.07-1.55,3.93-3.09,5.4-.78.74-1.66,1.36-2.61,1.85-1.02.53-2.08.96-2.9,1.79-.48.49.27,1.25.76.76.85-.87,2.04-1.26,3.08-1.84.96-.54,1.85-1.22,2.63-2.01,1.55-1.55,2.67-3.52,3.15-5.66.11-.48-.54-.97-.9-.52-1.42,1.75-2.93,3.43-4.52,5.02s-3.2,3.21-5.12,4.36c-.59.36-.05,1.28.54.93h0Z"/>
      <path class="st28" d="M401.73,201.86c.08-.62-.49-.72-.89-.96-.21-.12-.19-.21.04-.36.28-.19.69-.24,1.01-.29,1.33-.23,2.59-.31,3.71-1.15.92-.69,1.61-1.63,2.18-2.62.66-1.13,1.41-2.39,1.47-3.72.02-.44-.46-.63-.81-.46-1.25.6-1.5,2.01-2.2,3.07-.83,1.25-2.16,2.1-3.43,2.86-.59.36-.05,1.29.54.93,1.27-.77,2.55-1.61,3.48-2.79.42-.54.71-1.12,1-1.73.27-.57.56-1.13,1.15-1.41l-.81-.46c-.03.75-.38,1.42-.72,2.08-.27.53-.56,1.06-.87,1.56-.6.95-1.36,1.86-2.42,2.31-1.23.52-2.82.2-3.94.99-.46.32-.74.89-.57,1.45.08.28.28.5.53.64.1.06.21.1.32.14.07.03.13.05.2.08.1.06.08.02-.04-.13-.04.29.27.53.54.54.32,0,.5-.25.54-.54h0Z"/>
      <path class="st28" d="M395.93,191.79c.28,4.04.6,8.09.82,12.14.04.69,1.09.69,1.07,0-.08-2.63-.02-5.26.17-7.89.05-.69-1.02-.69-1.07,0-.19,2.62-.25,5.26-.17,7.89h1.07c-.22-4.05-.53-8.09-.82-12.14-.05-.69-1.12-.69-1.07,0h0Z"/>
      <path class="st28" d="M396.64,192.05c.06.95.67,1.57,1.04,2.4s.36,1.79.17,2.67c-.4,1.92-1.54,3.58-2.16,5.42-.22.66.82.94,1.04.29.63-1.9,1.83-3.61,2.19-5.6.17-.89.19-1.83-.08-2.71-.13-.44-.34-.83-.57-1.22s-.53-.78-.55-1.26c-.04-.69-1.12-.69-1.07,0h0Z"/>
      <path class="st28" d="M400.39,201.29c1.24-.34,2.44-.85,3.53-1.52.51-.32.18-1.14-.41-.98-1.1.29-2.15.78-3.06,1.45-.23.17-.36.47-.19.73.14.22.49.37.73.19.88-.64,1.78-1.07,2.81-1.34l-.41-.98c-1.05.65-2.09,1.09-3.28,1.42-.27.07-.46.39-.37.66s.37.45.66.37h0Z"/>
      <path class="st28" d="M395.6,191.79c.36,3.8.47,7.62.32,11.43-.03.71,1,.67,1.07,0,.24-2.04.6-4.06,1.06-6.05.16-.67-.88-.96-1.04-.29-.49,2.09-.85,4.21-1.1,6.34h1.07c.15-3.81.04-7.63-.32-11.43-.07-.68-1.14-.69-1.07,0h0Z"/>
      <path class="st28" d="M399.36,195.33c-.01-.87-.56-1.5-1.15-2.1-.7-.72-1.28-1.5-1.73-2.4l-.84.65c1.21,1.24,2.57,2.85,2.59,4.68s-1.19,3.52-2.22,4.97c-.4.56.53,1.1.93.54,1.18-1.66,2.47-3.56,2.36-5.69s-1.52-3.84-2.9-5.26c-.44-.46-1.11.12-.84.65.38.77.86,1.48,1.43,2.12.45.51,1.29,1.08,1.3,1.84,0,.69,1.08.69,1.07,0h0Z"/>
      <path class="st28" d="M401.19,201.73c1.05-.39,1.8-1.25,2.79-1.74s2.04-.78,2.95-1.37c.98-.64,1.57-1.56,1.93-2.65.4-1.2.71-2.5.45-3.77-.14-.68-1.17-.39-1.04.29.22,1.07-.12,2.25-.47,3.26s-.93,1.71-1.86,2.21c-.83.44-1.73.72-2.56,1.14s-1.56,1.26-2.48,1.61c-.64.24-.36,1.28.29,1.04h0Z"/>
      <path class="st28" d="M401.22,199.74l-2.41,2.18.9.52c.3-.71,1.1-1.2,1.78-1.55.86-.45,1.76-.84,2.5-1.49.22-.19.2-.56,0-.76-.22-.22-.54-.19-.76,0-.73.65-1.68.98-2.53,1.46s-1.63,1.12-2.03,2.06c-.09.22.06.5.25.61.21.12.47.08.65-.08l2.41-2.18c.21-.19.2-.56,0-.76-.21-.21-.54-.2-.76,0h0Z"/>
      <path class="st28" d="M392.97,210.49l-3.03-1.94c-.74-.47-2.11-1.5-2.78-.35-.47.8-.43,1.96-.13,2.81.33.92.97,1.69,1.83,2.16.98.53,2.14.68,3.23.42.67-.16.39-1.2-.29-1.04-1.39.34-2.97-.26-3.62-1.57-.31-.61-.37-1.34-.18-1.99.02-.06.06-.23.1-.25-.04.02.05.01.05.01.08.03.15.04.22.07.43.19.82.5,1.21.76l2.86,1.83c.58.37,1.12-.56.54-.93h0Z"/>
      <path class="st28" d="M391.5,212.71c-1.28-.28-2.57-.61-3.86-.85-.66-.12-1.42-.27-2.04.1s-.75,1.01-.81,1.66c-.1,1.11-.39,2.5-.23,3.6.25,1.66,2.11,1.28,3.25.85,1.86-.69,3.36-2.05,4.8-3.38l-.92-.38c.12,2.18.38,4.71,2.2,6.19.94.77,2.12,1.05,3.29,1.28,1.63.32,3.29.51,4.95.57,1.24.04,2.45.06,3.57-.54,1.21-.65,2.32-1.66,3.35-2.56.82-.71,2.41-1.73,2.49-2.94.06-.9-1.31-1.78-1.05-2.54.23-.65-.81-.94-1.04-.29-.19.56-.04,1.01.27,1.5.18.28.53.57.63.88.23.78-.9,1.57-1.37,2.01-.97.88-1.98,1.76-3.06,2.52s-2.04.92-3.31.9c-1.4-.02-2.81-.15-4.19-.37-1.13-.18-2.45-.35-3.45-.96-1.89-1.15-2.09-3.66-2.2-5.65-.03-.47-.57-.7-.92-.38-.9.84-1.81,1.68-2.85,2.34-.52.33-1.07.62-1.66.83-.24.08-.59.24-.85.23-.64-.04-.76-.38-.82-.97s.09-1.24.13-1.83c.05-.73.07-1.79,1.02-1.73,1.45.09,2.98.63,4.39.94.67.15.96-.89.29-1.04h0Z"/>
      <path class="st28" d="M387.15,213.86c.69,0,.69-1.07,0-1.07s-.69,1.07,0,1.07h0Z"/>
      <path class="st28" d="M390.31,210.6c.69,0,.69-1.07,0-1.07s-.69,1.07,0,1.07h0Z"/>
      <path class="st28" d="M388.05,216.41c.69,0,.69-1.07,0-1.07s-.69,1.07,0,1.07h0Z"/>
      <path class="st28" d="M394.24,219.1c.69,0,.69-1.07,0-1.07s-.69,1.07,0,1.07h0Z"/>
      <path class="st28" d="M397.86,219.24c.69,0,.69-1.07,0-1.07s-.69,1.07,0,1.07h0Z"/>
      <path class="st28" d="M399.37,221.55l.75-.02c.14,0,.28-.06.38-.16.05-.05.09-.11.11-.17.03-.06.05-.13.05-.21,0-.14-.05-.28-.16-.38s-.24-.16-.38-.16l-.75.02c-.14,0-.28.06-.38.16-.05.05-.09.11-.11.17-.03.06-.05.13-.05.21,0,.14.05.28.16.38s.24.16.38.16h0Z"/>
      <path class="st28" d="M404.42,218.8l.3.28c.05.05.11.09.17.11.06.03.13.05.21.05.07,0,.14-.01.21-.05.07-.02.12-.06.17-.11l.08-.11c.05-.08.07-.17.07-.27l-.02-.14c-.03-.09-.07-.17-.14-.24l-.3-.28c-.05-.05-.11-.09-.17-.11-.06-.03-.13-.05-.21-.05-.07,0-.14.01-.21.05-.07.02-.12.06-.17.11l-.08.11c-.05.08-.07.17-.07.27l.02.14c.03.09.07.17.14.24h0Z"/>
      <path class="st28" d="M403.29,221.94c.69,0,.69-1.07,0-1.07s-.69,1.07,0,1.07h0Z"/>
      <path class="st28" d="M408.11,216.55c.69,0,.69-1.07,0-1.07s-.69,1.07,0,1.07h0Z"/>
      <path class="st28" d="M387.6,214c.69,0,.69-1.07,0-1.07s-.69,1.07,0,1.07h0Z"/>
      <path class="st28" d="M387.73,215.74l-.3.43c-.04.06-.06.13-.06.2-.02.07-.01.14,0,.21.02.07.05.13.1.18.04.06.09.1.15.14l.13.05c.1.03.19.03.29,0l.13-.05c.08-.05.14-.11.19-.19l.3-.43c.04-.06.06-.13.06-.2.02-.07.01-.14,0-.21-.02-.07-.05-.13-.1-.18-.04-.06-.09-.1-.15-.14l-.13-.05c-.1-.03-.19-.03-.29,0l-.13.05c-.08.05-.14.11-.19.19h0Z"/>
      <path class="st28" d="M390.62,211.17c.69,0,.69-1.07,0-1.07s-.69,1.07,0,1.07h0Z"/>
      <path class="st4" d="M401.71,211.91c-.46-2.2-1.91-5.18-3.98-5.66,0,0-3.02,7.35,3.98,5.66Z"/>
      <path class="st4" d="M407.75,207.49c-1.95,1.58-3.08,3.16-3.32,4.75,3.73.92,4.41-1.07,3.32-4.75Z"/>
      <path class="st28" d="M400.27,210.03c.69,0,.69-1.07,0-1.07s-.69,1.07,0,1.07h0Z"/>
      <path class="st28" d="M405.7,210.74c.69,0,.69-1.07,0-1.07s-.69,1.07,0,1.07h0Z"/>
      <path class="st3" d="M402.08,213.34l-.74,1.14c-.23.35,0,.81.43.83l1.35.07c.41.02.7-.41.51-.78l-.61-1.21c-.19-.37-.71-.4-.94-.05Z"/>
      <path class="st28" d="M402.19,214.47c.25,0,.66-.38.24-.38-.25,0-.66.38-.24.38h0Z"/>
      <path class="st28" d="M402.78,214.74c.19,0,.67-.29.26-.29-.19,0-.67.29-.26.29h0Z"/>
    </g>
  </g>
</svg>