<?xml version="1.0" encoding="UTF-8"?>
<svg xmlns="http://www.w3.org/2000/svg" version="1.1" viewBox="0 0 800 600">
  <!-- Generator: Adobe Illustrator 29.1.0, SVG Export Plug-In . SVG Version: 2.1.0 Build 142)  -->
  <defs>
    <style>
      .st0 {
        stroke-width: 2.17px;
      }

      .st0, .st1, .st2, .st3, .st4, .st5, .st6, .st7, .st8, .st9, .st10, .st11, .st12, .st13, .st14, .st15, .st16, .st17, .st18, .st19, .st20 {
        stroke-miterlimit: 10;
      }

      .st0, .st2, .st4, .st21, .st5, .st6, .st7, .st8, .st22, .st9, .st10, .st11, .st12, .st13, .st23, .st15, .st16, .st17, .st18, .st19, .st20 {
        stroke: #1d2088;
      }

      .st0, .st21, .st5, .st6, .st7, .st22, .st9, .st10, .st12, .st13, .st23, .st15, .st17, .st18, .st19, .st20 {
        fill: none;
      }

      .st1, .st21 {
        stroke-width: 2px;
      }

      .st1, .st14 {
        stroke: #2b0099;
      }

      .st1, .st14, .st24 {
        fill: #aba1ff;
      }

      .st2 {
        stroke-width: .18px;
      }

      .st2, .st3, .st4, .st25, .st8, .st16 {
        fill: #fff;
      }

      .st3 {
        stroke: #fff;
        stroke-width: .21px;
      }

      .st4 {
        stroke-width: 2.82px;
      }

      .st4, .st21, .st5, .st6, .st22, .st13, .st23 {
        stroke-linecap: round;
      }

      .st21, .st22, .st23 {
        stroke-linejoin: round;
      }

      .st6, .st7 {
        stroke-width: 3px;
      }

      .st22 {
        stroke-width: 2.86px;
      }

      .st9 {
        stroke-width: 1.87px;
      }

      .st10 {
        stroke-width: 2.23px;
      }

      .st11, .st26 {
        fill: #2b0099;
      }

      .st12 {
        stroke-width: 1.66px;
      }

      .st13 {
        stroke-width: 3.52px;
      }

      .st23 {
        stroke-width: 2.01px;
      }

      .st15 {
        stroke-width: 3.69px;
      }

      .st27, .st19 {
        display: none;
      }

      .st16 {
        stroke-width: 2.05px;
      }

      .st17 {
        stroke-width: 2.06px;
      }

      .st28 {
        fill: #1d2088;
      }

      .st19 {
        stroke-width: 4.96px;
      }

      .st20 {
        stroke-width: 2.16px;
      }
    </style>
  </defs>
  <g id="_レイヤー_1" data-name="レイヤー_1">
    <path class="st17" d="M452.9,201.24c3.31,28.5-14.08,53.93-38.86,56.81-4.1.48-8.16.3-12.06-.44-13.62-2.61-25.63-12.19-32.65-25.71-3.09-8.68-5.32-16.47-6.41-23.15-.47-7.05.31-13.86,2.14-20.13.31-1.04.64-2.08,1.01-3.09,0,0,0,0,0-.01,5.89-16.5,19.25-28.71,35.97-30.66,24.78-2.88,47.55,17.89,50.86,46.39Z"/>
    <path class="st16" d="M366.67,224.41c-2.39-6.37-3.72-13.4-3.72-20.8,0-.99.02-1.97.07-2.94.31,6.77,1.61,14.76,3.65,23.74Z"/>
    <ellipse class="st11" cx="400" cy="200.67" rx="4.82" ry="3.27"/>
    <path class="st6" d="M390.19,194.31c.46-.54,2.04-2.22,5.81-3.46,5.18-1.7,10.29-1.19,11.05-1.11"/>
    <path class="st13" d="M424.36,194.01c.72-.8,3.09-3.21,7.29-3.92,5.77-.97,10.32,2.06,11,2.53"/>
    <path class="st4" d="M405.18,234.95c.7,1.01,3.22,4.4,7.69,5.49,6.51,1.58,11.4-3.14,11.88-3.61"/>
    <path class="st20" d="M425.97,254.97c1.1,5.81,3.05,12.15,6.32,18.78.61,1.24-7.72,4.93-13.28,5.17-18.11.79-33.06-2.33-42.87-5.17h0c4.49-6.35,8.98-12.7,13.46-19.05"/>
    <ellipse class="st11" cx="429.16" cy="200.67" rx="4.82" ry="3.27"/>
    <g>
      <path class="st21" d="M420.78,220.06c-.21-1.52-2.7-2.45-4.64-2.2-1.46.18-2.66,1.03-2.77,2.07"/>
      <path class="st21" d="M413.48,219.13c-1.78-.72-3.98-.46-4.64.24-.5.53-.14,1.32.96,1.89"/>
      <path class="st23" d="M423.01,221.9c1.71-.34,2.08-1.64,1.25-2.49-.63-.64-1.95-1.06-3.19-.94"/>
    </g>
    <path class="st12" d="M403.47,153.94"/>
    <path class="st18" d="M369.18,191.95"/>
    <path class="st9" d="M378.19,273.15c-53.74,3.57-73.48,57.76-92.99,112.28,4.08,16.44,72.83,12.05,72,8.68l9.38-26.55-31.84-2.55,46.78,3.57-7.97,28.71-11.34-3.1-4.36-1.19"/>
    <path class="st9" d="M400,401.51"/>
    <path class="st28" d="M628.64,293.19c.22,0,.36.11.44.21.08.1.16.26.11.48l-22.53,104.58c-.06.26-.28.44-.54.45l-118.66,2.55c-.22,0-.36-.12-.44-.21-.08-.1-.16-.26-.11-.48l24.27-104.62c.06-.25.28-.43.54-.44l116.91-2.51h.01M628.64,290.33s-.05,0-.08,0l-116.9,2.51c-1.57.03-2.91,1.12-3.26,2.65l-24.27,104.62c-.5,2.15,1.14,4.2,3.33,4.2.03,0,.05,0,.08,0l118.64-2.55c1.59-.03,2.94-1.15,3.27-2.7l22.53-104.58c.46-2.14-1.17-4.15-3.35-4.15h0Z"/>
    <line class="st22" x1="413.38" y1="401.07" x2="609.92" y2="404.76"/>
    <g id="pchan">
      <path class="st0" d="M383.91,374.6c7.65-1.62,29.14-5.5,40.16,2.04,1.68,1.15,4.91,3.79,4.15,4.6-1.41,1.52-15.92-4.46-16.62-3.57-.71.91,14.25,7.47,13.16,9.19-1.09,1.72-17.4-2.67-18-1.53-.62,1.16,15.8,6.6,15.23,7.66-.59,1.09-18.76-3.68-19.39-2.55-.64,1.15,17.78,7.33,17.31,8.17-.31.55-9.34-1.95-30.47-7.15-3.27-.81-6.01-1.47-7.94-1.94"/>
      <path class="st28" d="M406.79,318.99c3.22,0,3.22-5,0-5s-3.22,5,0,5h0Z"/>
      <path class="st28" d="M405.77,343.5c3.22,0,3.22-5,0-5s-3.22,5,0,5h0Z"/>
      <path class="st28" d="M435.76,274.87l1.01,1.54c.16.29.37.53.64.7.24.22.52.37.85.45.33.1.66.12,1,.04.33-.02.64-.11.93-.3l.51-.39c.31-.31.52-.68.64-1.1l.09-.66c0-.45-.12-.87-.34-1.26l-1.01-1.54c-.16-.29-.37-.53-.64-.7-.24-.22-.52-.37-.85-.45-.33-.1-.66-.12-1-.04-.33.02-.64.11-.93.3l-.51.39c-.31.31-.52.68-.64,1.1l-.09.66c0,.45.12.87.34,1.26h0Z"/>
      <g>
        <ellipse class="st28" cx="563.14" cy="349.9" rx="8.79" ry="8.87"/>
        <path class="st28" d="M555.12,350.41l-3.03-1.94c-.74-.47-2.11-1.5-2.78-.35-.47.8-.43,1.96-.13,2.81.33.92.97,1.69,1.83,2.16.98.53,2.14.68,3.23.42.67-.16.39-1.2-.29-1.04-1.39.34-2.97-.26-3.62-1.57-.31-.61-.37-1.34-.18-1.99.02-.06.06-.23.1-.25-.04.02.05.01.05.01.08.03.15.04.22.07.43.19.82.5,1.21.76l2.86,1.83c.58.37,1.12-.56.54-.93h0Z"/>
        <path class="st28" d="M553.65,352.63c-1.28-.28-2.57-.61-3.86-.85-.66-.12-1.42-.27-2.04.1s-.75,1.01-.81,1.66c-.1,1.11-.39,2.5-.23,3.6.25,1.66,2.11,1.28,3.25.85,1.86-.69,3.36-2.05,4.8-3.38l-.92-.38c.12,2.18.38,4.71,2.2,6.19.94.77,2.12,1.05,3.29,1.28,1.63.32,3.29.51,4.95.57,1.24.04,2.45.06,3.57-.54,1.21-.65,2.32-1.66,3.35-2.56.82-.71,2.41-1.73,2.49-2.94.06-.9-1.31-1.78-1.05-2.54.23-.65-.81-.94-1.04-.29-.19.56-.04,1.01.27,1.5.18.28.53.57.63.88.23.78-.9,1.57-1.37,2.01-.97.88-1.98,1.76-3.06,2.52s-2.04.92-3.31.9c-1.4-.02-2.81-.15-4.19-.37-1.13-.18-2.45-.35-3.45-.96-1.89-1.15-2.09-3.66-2.2-5.65-.03-.47-.57-.7-.92-.38-.9.84-1.81,1.68-2.85,2.34-.52.33-1.07.62-1.66.83-.24.08-.59.24-.85.23-.64-.04-.76-.38-.82-.97s.09-1.24.13-1.83c.05-.73.07-1.79,1.02-1.73,1.45.09,2.98.63,4.39.94.67.15.96-.89.29-1.04h0Z"/>
        <path class="st28" d="M549.3,353.78c.69,0,.69-1.07,0-1.07s-.69,1.07,0,1.07h0Z"/>
        <path class="st28" d="M552.46,350.52c.69,0,.69-1.07,0-1.07s-.69,1.07,0,1.07h0Z"/>
        <path class="st28" d="M550.2,356.33c.69,0,.69-1.07,0-1.07s-.69,1.07,0,1.07h0Z"/>
        <path class="st28" d="M556.39,359.03c.69,0,.69-1.07,0-1.07s-.69,1.07,0,1.07h0Z"/>
        <path class="st28" d="M560.01,359.17c.69,0,.69-1.07,0-1.07s-.69,1.07,0,1.07h0Z"/>
        <path class="st28" d="M561.52,361.48l.75-.02c.14,0,.28-.06.38-.16.05-.05.09-.11.11-.17.03-.06.05-.13.05-.21,0-.14-.05-.28-.16-.38s-.24-.16-.38-.16l-.75.02c-.14,0-.28.06-.38.16-.05.05-.09.11-.11.17-.03.06-.05.13-.05.21,0,.14.05.28.16.38s.24.16.38.16h0Z"/>
        <path class="st28" d="M566.57,358.73l.3.28c.05.05.11.09.17.11.06.03.13.05.21.05.07,0,.14-.01.21-.05.07-.02.12-.06.17-.11l.08-.11c.05-.08.07-.17.07-.27l-.02-.14c-.03-.09-.07-.17-.14-.24l-.3-.28c-.05-.05-.11-.09-.17-.11-.06-.03-.13-.05-.21-.05-.07,0-.14.01-.21.05-.07.02-.12.06-.17.11l-.08.11c-.05.08-.07.17-.07.27l.02.14c.03.09.07.17.14.24h0Z"/>
        <path class="st28" d="M565.44,361.86c.69,0,.69-1.07,0-1.07s-.69,1.07,0,1.07h0Z"/>
        <path class="st28" d="M570.27,356.48c.69,0,.69-1.07,0-1.07s-.69,1.07,0,1.07h0Z"/>
        <path class="st28" d="M549.75,353.93c.69,0,.69-1.07,0-1.07s-.69,1.07,0,1.07h0Z"/>
        <path class="st28" d="M549.88,355.66l-.3.43c-.04.06-.06.13-.06.2-.02.07-.01.14,0,.21.02.07.05.13.1.18.04.06.09.1.15.14l.13.05c.1.03.19.03.29,0l.13-.05c.08-.05.14-.11.19-.19l.3-.43c.04-.06.06-.13.06-.2.02-.07.01-.14,0-.21-.02-.07-.05-.13-.1-.18-.04-.06-.09-.1-.15-.14l-.13-.05c-.1-.03-.19-.03-.29,0l-.13.05c-.08.05-.14.11-.19.19h0Z"/>
        <path class="st28" d="M552.77,351.09c.69,0,.69-1.07,0-1.07s-.69,1.07,0,1.07h0Z"/>
        <path class="st3" d="M563.86,351.83c-.46-2.2-1.91-5.18-3.98-5.66,0,0-3.02,7.35,3.98,5.66Z"/>
        <path class="st3" d="M569.9,347.41c-1.95,1.58-3.08,3.16-3.32,4.75,3.73.92,4.41-1.07,3.32-4.75Z"/>
        <path class="st28" d="M562.42,349.96c.69,0,.69-1.07,0-1.07s-.69,1.07,0,1.07h0Z"/>
        <path class="st28" d="M567.85,350.67c.69,0,.69-1.07,0-1.07s-.69,1.07,0,1.07h0Z"/>
        <path class="st2" d="M564.23,353.26l-.74,1.14c-.23.35,0,.81.43.83l1.35.07c.41.02.7-.41.51-.78l-.61-1.21c-.19-.37-.71-.4-.94-.05Z"/>
        <path class="st28" d="M564.34,354.39c.25,0,.66-.38.24-.38-.25,0-.66.38-.24.38h0Z"/>
        <path class="st28" d="M564.93,354.67c.19,0,.67-.29.26-.29-.19,0-.67.29-.26.29h0Z"/>
        <g class="st27">
          <path class="st28" d="M558.83,334.4c.19,2.74.1,5.49-.26,8.22-.04.29.27.53.54.54.32,0,.5-.25.54-.54.36-2.72.45-5.47.26-8.22-.05-.69-1.12-.69-1.07,0h0Z"/>
          <path class="st28" d="M559.46,334c1.17,2.35.91,5.18-.57,7.33l.93.54c.5-.92.92-1.88,1.24-2.88.16-.48.29-.98.4-1.48.11-.47.21-.97.02-1.43-.31-.74-1.41-1.03-1.89-.28-.51.81-.33,1.96.07,2.77.15.3.63.36.84.11.86-1,.17-2.04-.32-3.02-.28-.56-.15-1.16-.27-1.75-.11-.51-.4-.97-.88-1.2-.62-.29-1.17.64-.54.93.34.16.39.48.41.82.02.47.02.92.19,1.36.2.5,1.12,1.55.65,2.09l.84.11c-.13-.27-.21-.55-.22-.85,0-.16,0-.65.07-.75-.03.04.04-.05.07.05.03.13.02.25,0,.38-.04.29-.13.59-.2.88-.32,1.25-.8,2.44-1.42,3.58-.33.61.54,1.11.93.54,1.7-2.48,1.91-5.73.57-8.42-.31-.62-1.23-.08-.93.54h0Z"/>
          <path class="st28" d="M559.4,333.95c.69,0,.69-1.07,0-1.07s-.69,1.07,0,1.07h0Z"/>
          <path class="st28" d="M558.08,331.71c.28,4.04.6,8.09.82,12.14.04.69,1.09.69,1.07,0-.08-2.63-.02-5.26.17-7.89.05-.69-1.02-.69-1.07,0-.19,2.62-.25,5.26-.17,7.89h1.07c-.22-4.05-.53-8.09-.82-12.14-.05-.69-1.12-.69-1.07,0h0Z"/>
          <path class="st28" d="M558.79,331.98c.06.95.67,1.57,1.04,2.4s.36,1.79.17,2.67c-.4,1.92-1.54,3.58-2.16,5.42-.22.66.82.94,1.04.29.63-1.9,1.83-3.61,2.19-5.6.17-.89.19-1.83-.08-2.71-.13-.44-.34-.83-.57-1.22s-.53-.78-.55-1.26c-.04-.69-1.12-.69-1.07,0h0Z"/>
          <path class="st28" d="M557.75,331.71c.36,3.8.47,7.62.32,11.43-.03.71,1,.67,1.07,0,.24-2.04.6-4.06,1.06-6.05.16-.67-.88-.96-1.04-.29-.49,2.09-.85,4.21-1.1,6.34h1.07c.15-3.81.04-7.63-.32-11.43-.07-.68-1.14-.69-1.07,0h0Z"/>
          <path class="st28" d="M561.51,335.26c-.01-.87-.56-1.5-1.15-2.1-.7-.72-1.28-1.5-1.73-2.4l-.84.65c1.21,1.24,2.57,2.85,2.59,4.68s-1.19,3.52-2.22,4.97c-.4.56.53,1.1.93.54,1.18-1.66,2.47-3.56,2.36-5.69s-1.52-3.84-2.9-5.26c-.44-.46-1.11.12-.84.65.38.77.86,1.48,1.43,2.12.45.51,1.29,1.08,1.3,1.84,0,.69,1.08.69,1.07,0h0Z"/>
        </g>
        <g class="st27">
          <path class="st28" d="M561.82,341.58c1.94-1.17,3.61-2.81,5.21-4.4s3.19-3.35,4.65-5.15l-.9-.52c-.46,2.07-1.55,3.93-3.09,5.4-.78.74-1.66,1.36-2.61,1.85-1.02.53-2.08.96-2.9,1.79-.48.49.27,1.25.76.76.85-.87,2.04-1.26,3.08-1.84.96-.54,1.85-1.22,2.63-2.01,1.55-1.55,2.67-3.52,3.15-5.66.11-.48-.54-.97-.9-.52-1.42,1.75-2.93,3.43-4.52,5.02s-3.2,3.21-5.12,4.36c-.59.36-.05,1.28.54.93h0Z"/>
          <path class="st28" d="M563.88,341.78c.08-.62-.49-.72-.89-.96-.21-.12-.19-.21.04-.36.28-.19.69-.24,1.01-.29,1.33-.23,2.59-.31,3.71-1.15.92-.69,1.61-1.63,2.18-2.62.66-1.13,1.41-2.39,1.47-3.72.02-.44-.46-.63-.81-.46-1.25.6-1.5,2.01-2.2,3.07-.83,1.25-2.16,2.1-3.43,2.86-.59.36-.05,1.29.54.93,1.27-.77,2.55-1.61,3.48-2.79.42-.54.71-1.12,1-1.73.27-.57.56-1.13,1.15-1.41l-.81-.46c-.03.75-.38,1.42-.72,2.08-.27.53-.56,1.06-.87,1.56-.6.95-1.36,1.86-2.42,2.31-1.23.52-2.82.2-3.94.99-.46.32-.74.89-.57,1.45.08.28.28.5.53.64.1.06.21.1.32.14.07.03.13.05.2.08.1.06.08.02-.04-.13-.04.29.27.53.54.54.32,0,.5-.25.54-.54h0Z"/>
          <path class="st28" d="M563.34,341.65c1.05-.39,1.8-1.25,2.79-1.74s2.04-.78,2.95-1.37c.98-.64,1.57-1.56,1.93-2.65.4-1.2.71-2.5.45-3.77-.14-.68-1.17-.39-1.04.29.22,1.07-.12,2.25-.47,3.26s-.93,1.71-1.86,2.21c-.83.44-1.73.72-2.56,1.14s-1.56,1.26-2.48,1.61c-.64.24-.36,1.28.29,1.04h0Z"/>
        </g>
        <g>
          <path class="st28" d="M567.03,343.97c.07-2.25-.4-4.53-.85-6.72s-1.08-4.54-1.79-6.75l-.9.52c1.47,1.51,2.42,3.42,2.82,5.49.19,1.01.23,2.05.14,3.08-.1,1.21-.33,2.36-.08,3.57.14.68,1.18.39,1.04-.29-.27-1.3.12-2.63.16-3.94.03-1.05-.07-2.11-.31-3.14-.48-2.08-1.52-4.01-3-5.54-.36-.38-1.06,0-.9.52.69,2.14,1.28,4.31,1.74,6.51s.94,4.44.87,6.69c-.02.69,1.05.69,1.07,0h0Z"/>
          <path class="st28" d="M568.3,342.36c-.4-.29-.8-.09-1.17.16-.75.51-.12-1.09,0-1.34.55-1.2,1.09-2.31.97-3.67-.11-1.26-.61-2.43-1.2-3.54s-1.14-2.17-2.14-2.89c-.37-.26-.77.1-.81.46-.16,1.42.96,2.4,1.44,3.64.53,1.37.51,2.87.47,4.31-.02.69,1.05.69,1.07,0,.05-1.41.04-2.87-.38-4.24-.2-.65-.52-1.23-.87-1.81s-.73-1.17-.65-1.9l-.81.46c1,.72,1.62,2.16,2.13,3.24.6,1.27.94,2.66.47,4.02-.37,1.06-1.34,2.25-1.11,3.43.09.49.45.92.95,1.03.22.05.44.02.64-.06.12-.05.22-.11.32-.18l.13-.09c.16-.07.17-.1.02-.11.56.4,1.1-.53.54-.93h0Z"/>
          <path class="st28" d="M567.93,342.74c.25-1.23-.09-2.47.11-3.71.19-1.15.51-2.3.35-3.46-.15-1.1-.77-2-1.49-2.81s-1.52-1.59-2.57-2.01c-.64-.26-.92.78-.29,1.04.88.35,1.55,1.1,2.16,1.8.68.79,1.17,1.64,1.16,2.71-.01.98-.3,1.94-.43,2.91-.14,1.08.17,2.2-.05,3.26-.14.67.9.96,1.04.29h0Z"/>
        </g>
        <g>
          <path class="st28" d="M557.25,334.57c.92,2.59,1.58,5.26,1.96,7.98.04.29.41.44.66.37.31-.08.42-.37.37-.66-.39-2.72-1.04-5.39-1.96-7.98-.23-.65-1.27-.37-1.04.29h0Z"/>
          <path class="st28" d="M557.74,334c1.76,1.95,2.28,4.74,1.44,7.21l1.04.29c.24-1.05.39-2.11.43-3.19.02-.53.01-1.07-.02-1.61-.03-.44-.08-.89-.37-1.24-.53-.65-1.67-.57-1.9.31s.23,1.93.82,2.59c.22.24.7.2.84-.11.25-.53.22-1.06-.05-1.58s-.72-.86-1.1-1.28-.43-1.01-.68-1.52c-.23-.48-.65-.88-1.19-.97-.68-.11-.97.93-.29,1.04.41.07.54.42.65.78.13.4.25.8.5,1.14.24.32.53.58.81.87.22.23.57.64.41.99l.84-.11c-.32-.36-.66-.99-.55-1.5-.02.09-.11-.09,0,0,.09.07.11.15.13.26.07.28.06.6.06.88.04,1.34-.1,2.67-.39,3.97-.15.68.81.94,1.04.29.97-2.84.3-6.04-1.71-8.26-.46-.51-1.22.25-.76.76h0Z"/>
          <path class="st28" d="M557.53,333.99c.69,0,.69-1.07,0-1.07s-.69,1.07,0,1.07h0Z"/>
          <path class="st28" d="M555.8,332.18c1.37,3.82,2.76,7.63,4.06,11.47.22.65,1.24.38,1.04-.29-.79-2.51-1.44-5.06-1.96-7.64-.14-.68-1.17-.39-1.04.29.52,2.58,1.18,5.13,1.96,7.64l1.04-.29c-1.3-3.84-2.7-7.65-4.06-11.47-.23-.65-1.27-.37-1.04.29h0Z"/>
          <path class="st28" d="M556.56,332.24c.29.83.95,1.28,1.52,1.9.61.66.9,1.54.99,2.42.21,2.03-.5,4.03-.6,6.04-.03.69,1.04.69,1.07,0,.1-2.08.83-4.12.58-6.21-.1-.84-.33-1.68-.8-2.4-.25-.38-.55-.7-.88-1.01s-.7-.6-.85-1.04c-.22-.65-1.26-.37-1.04.29h0Z"/>
          <path class="st28" d="M555.48,332.27c1.38,3.56,2.51,7.21,3.4,10.92.16.69,1.14.38,1.04-.29-.32-2.03-.52-4.07-.61-6.12-.03-.69-1.1-.69-1.07,0,.09,2.15.31,4.28.65,6.4l1.04-.29c-.89-3.71-2.02-7.36-3.4-10.92-.25-.64-1.29-.36-1.04.29h0Z"/>
          <path class="st28" d="M560.06,334.67c-.23-.82-.92-1.28-1.63-1.69-.88-.51-1.67-1.11-2.35-1.87l-.65.84c1.47.86,3.2,2.01,3.74,3.71.57,1.81-.15,3.77-.77,5.48-.23.65.8.93,1.04.29.69-1.94,1.44-4.17.71-6.21-.69-1.91-2.49-3.21-4.18-4.2-.54-.32-1.05.4-.65.84.6.66,1.28,1.24,2.04,1.72.56.35,1.46.66,1.66,1.36s1.23.38,1.04-.29h0Z"/>
        </g>
      </g>
    </g>
    <path class="st9" d="M501.65,342.46"/>
    <path class="st9" d="M500.57,339.65"/>
    <path class="st21" d="M374.94,274.23l1.2,1.61c10.23,23.29,46.99,29.41,56.15-2.09"/>
  </g>
  <g id="_手" data-name="手">
    <path class="st26" d="M467.02,334.1c8.15-6.29,16.63-12.13,25.41-17.51.69-.42.06-1.5-.63-1.08-8.78,5.37-17.26,11.22-25.41,17.51-.63.48,0,1.57.63,1.08h0Z"/>
    <g>
      <path class="st28" d="M581.74,211.43c11.92,3.98,20.95,14.85,23.27,27.13.3,1.59.48,3.2.54,4.82s.18,3.45-.39,4.95c-.37.97-1.81,2.24-2.73,1.05-.51-.66-.56-1.95-.73-2.73-.4-1.79-.9-3.6-1.17-5.41-.24-1.6.02-4.25,2.32-3.81,1.71.33,3.02,2.05,3.88,3.43,2,3.19,3.67,6.59,5.01,10.11,2.98,7.86,4.26,16.28,3.77,24.67-.05.8,1.2.8,1.25,0,.53-8.92-.94-17.92-4.29-26.21-.8-1.99-1.71-3.94-2.72-5.83s-1.97-3.78-3.39-5.31c-1-1.08-2.42-2.17-3.97-2.16s-2.67,1.09-3.05,2.48c-.45,1.67.06,3.47.42,5.11.26,1.17.52,2.33.78,3.5.2.9.3,1.99.8,2.8.77,1.22,2.36,1.32,3.53.63,1.51-.9,1.8-2.78,1.9-4.39.43-7.34-1.79-14.77-5.71-20.94-4.44-6.98-11.11-12.46-18.98-15.09-.76-.26-1.09.95-.33,1.21h0Z"/>
      <path class="st10" d="M560.31,200.45c2.78-4.03,6.97-10,12.3-17.1,6.92-9.23,12.57-16.12,11.85-16.95-.86-.98-9.67,7.82-11.02,6.5-1.57-1.53,8.38-15.34,7.76-15.8-.7-.51-13.38,16.86-14.58,16.07-.55-.36,1.49-4.46,4.44-10.41,4.42-8.89,7.6-14.09,6.77-14.75-.4-.32-1.69.45-2.43,1.12-.79.72-1.18,1.53-1.28,1.72-1.61,3.3-13.76,23.82-14.04,23.71-.3-.11,11.41-25.08,10.54-25.46-1-.45-18.28,31.24-18.66,31.04-.04-.02.15-.43.21-.58,2-4.92.83-15.65-.87-15.49-1.37.12-3.71,7.35-7.9,32.07"/>
      <path class="st26" d="M470.12,277.7c12.91,1.16,23.14-9.22,30.08-18.82,4.4-6.08,8.23-12.55,12.01-19.03,3.98-6.8,7.95-13.61,11.92-20.42,4.38-7.5,8.88-14.95,12.64-22.79.35-.72-.73-1.36-1.08-.63-3.26,6.8-7.09,13.29-10.89,19.8s-7.64,13.09-11.46,19.63-7.41,12.82-11.54,18.96c-3.64,5.41-7.61,10.66-12.61,14.91-5.34,4.54-11.92,7.79-19.08,7.14-.8-.07-.8,1.18,0,1.25h0Z"/>
      <path class="st26" d="M533.57,275.59c10.22-15.47,17.89-32.41,24.9-49.53,2.01-4.9,3.96-9.82,5.92-14.73.3-.75-.91-1.07-1.21-.33-6.83,17.17-13.68,34.41-22.63,50.61-2.51,4.55-5.2,9.01-8.06,13.35-.44.67.64,1.3,1.08.63h0Z"/>
      <path class="st26" d="M544.66,203.75c2.72-.19,5.42.15,8,1,.77.25,1.09-.95.33-1.21-2.68-.88-5.52-1.24-8.34-1.05-.8.05-.8,1.3,0,1.25h0Z"/>
      <path class="st26" d="M532.32,215.88c4.71-.34,8.73,2.27,12.47,4.8s7.52,5.24,12.06,5.94c.79.12,1.13-1.08.33-1.21-9.14-1.43-15.17-11.49-24.86-10.78-.8.06-.8,1.31,0,1.25h0Z"/>
    </g>
    <g id="_レイヤー_5" data-name="レイヤー_5" class="st27">
      <path class="st10" d="M587.02,256.9c4.62-1.62,11.52-3.98,20.01-6.58,11.03-3.39,19.65-5.63,19.55-6.72-.12-1.29-12.42.62-12.74-1.23-.37-2.16,15.81-7.47,15.58-8.2-.26-.83-20.74,5.75-21.24,4.41-.23-.62,3.83-2.73,9.72-5.8,8.81-4.59,14.44-6.91,14.15-7.93-.14-.49-1.63-.63-2.62-.53-1.06.11-1.85.54-2.04.64-3.25,1.72-25.15,11.15-25.31,10.9-.18-.27,23.99-13.55,23.51-14.38-.54-.95-33.16,14.49-33.36,14.1-.02-.04.38-.26.51-.34,4.52-2.8,9.89-12.16,8.42-13.03-1.18-.71-7.33,3.76-25.27,21.28"/>
      <path class="st28" d="M554.63,244.97c.64,4.99,1.85,9.87,3.64,14.57.28.74,1.49.42,1.21-.33-1.74-4.59-2.96-9.37-3.59-14.24-.1-.79-1.35-.8-1.25,0h0Z"/>
      <path class="st28" d="M565.89,236.08c2.96,8.31,5.03,16.91,6.16,25.66.1.79,1.35.8,1.25,0-1.14-8.87-3.21-17.57-6.2-25.99-.27-.75-1.48-.43-1.21.33h0Z"/>
      <path class="st28" d="M530.29,288.09c12.25-10.77,29.8-11.61,42.99-20.83.65-.46.03-1.54-.63-1.08-13.29,9.28-30.88,10.16-43.24,21.02-.61.53.28,1.41.88.88h0Z"/>
      <path class="st28" d="M473.73,276.51c1.26-2.33,3.64-3.53,5.96-4.59,2.97-1.37,5.96-2.71,8.94-4.07,6.04-2.75,12.08-5.5,18.13-8.24,12.08-5.5,24.17-10.99,36.25-16.49,6.8-3.09,13.59-6.18,20.39-9.28.73-.33.1-1.41-.63-1.08-24.62,11.2-49.24,22.4-73.86,33.6-3.39,1.54-6.8,3.05-10.18,4.63-2.4,1.12-4.77,2.48-6.07,4.89-.38.71.7,1.34,1.08.63h0Z"/>
    </g>
  </g>
  <g id="_髪の毛" data-name="髪の毛">
    <path class="st25" d="M438.24,262.74v15.06c0,1.31,1.15,2.56,2.5,2.5s2.5-1.1,2.5-2.5v-15.06c0-1.31-1.15-2.56-2.5-2.5s-2.5,1.1-2.5,2.5h0Z"/>
    <path class="st5" d="M273,233.35"/>
    <path class="st24" d="M359.55,256.09c1.43-1.39,1.9-3.49,2.46-5.34s1.06-3.73,1.5-5.62c.91-3.93,1.53-7.92,1.92-11.94.27-2.82-4.27-3.38-4.91-.66-.47,2.01-.94,4.01-1.42,6.02s-1.08,4.14-1.31,6.25c-.2,1.88.18,3.77.65,5.59s1.7,3.95,3.93,3.95,3.41-2.09,4.41-3.73c.92-1.52,1.66-3.17,2.24-4.85.62-1.81.98-3.7,1.17-5.6s.22-4.16-1.71-5.31c-1.23-.74-2.64-.2-3.42.9-1.84,2.59-2.76,5.79-2.66,8.96s5.11,3.22,5,0c-.08-2.38.6-4.5,1.98-6.44l-3.42.9c-.88-.53-.66-1.6-.67-.63,0,.3-.02.6-.04.9-.03.5-.08,1-.16,1.49-.19,1.19-.5,2.36-.89,3.5-.34,1-.78,1.95-1.28,2.87-.29.53-.6,1.04-.94,1.54-.11.17-.5.53-.52.74,0,.05.31-.17.25-.16h1.33c.12.09.23.18.33.28.23.24.24.22.04-.09,0,.17-.14-.58-.14-.57-.17-.67-.35-1.36-.45-2.05-.2-1.36.05-2.61.36-3.92.72-3.08,1.45-6.16,2.17-9.23l-4.91-.66c-.33,3.44-.89,6.85-1.65,10.22-.38,1.69-.82,3.38-1.3,5.05-.24.83-.5,1.66-.76,2.49-.18.56-.3,1.22-.69,1.61-2.31,2.25,1.23,5.79,3.54,3.54h0Z"/>
    <path class="st24" d="M461.5,215.76c2.25-9.46,2.33-19.35.21-28.84-1.76-7.88-4.99-17.53-13.37-20.45-1.75-.61-3.68,1.33-3.08,3.08,3.01,8.73,6.19,17.41,8.99,26.21,1.31,4.1,2.48,8.32,2.91,12.62.33,3.36.51,7.52-1.7,10.35l4.27,1.77c.86-7.6,1.39-15.29.72-22.93-.64-7.29-2.21-15.11-6.02-21.46-1.99-3.32-4.97-6.09-9.01-6.26-1.8-.07-3.25,2.22-2.16,3.76,4.97,7.07,8.12,15.28,8.95,23.9.47,4.87.41,9.78.43,14.66s.03,9.9.01,14.85c-.02,5.61-.06,11.22-.12,16.83-.04,3.22,4.96,3.22,5,0,.11-10.15.15-20.3.11-30.45-.04-9.69.06-19.42-3.14-28.69-1.67-4.84-3.99-9.44-6.94-13.63l-2.16,3.76c3.23.13,5.08,4.21,6.18,6.71,1.74,3.98,2.82,8.26,3.46,12.55,1.31,8.71.66,17.68-.32,26.39-.23,2.06,2.97,3.43,4.27,1.77,2.69-3.45,3.5-7.6,3.31-11.91-.22-4.79-1.3-9.53-2.68-14.11-2.84-9.43-6.34-18.7-9.55-28.01l-3.08,3.08c3.12,1.09,5.12,3.97,6.53,6.8,1.72,3.44,2.76,7.29,3.54,11.05,1.73,8.33,1.57,17.02-.4,25.29-.74,3.13,4.08,4.46,4.82,1.33h0Z"/>
    <path class="st28" d="M400.82,180.3c3.66-3,6.77-6.64,9.19-10.69.83-1.38-1.33-2.64-2.16-1.26-2.32,3.89-5.3,7.32-8.8,10.19-.52.43-.44,1.32,0,1.77.52.52,1.24.43,1.77,0h0Z"/>
    <path class="st25" d="M436.26,274.9c1.75-.72,3.5-1.47,5.26-2.16.83-.32,1.67-.62,2.53-.84.71-.18,1.36-.41,1.91-.91.17-.16.6-.56.6-.84-.13.22-.31.38-.53.5.08-.05.16-.09.24-.12l-3.42-3.42c-.54,1.25-1.07,2.49-1.61,3.74-.26.61-.52,1.22-.78,1.82-.2.47-.36.85-.38,1.35-.02.4.16,1.01.37,1.36.27.44.66.84,1.11,1.08.94.5,2.22.52,3.13-.08s1.32-1.43,1.63-2.4c.1-.29.2-.58.31-.87.22-.59-.23.49.03-.08.06-.14.13-.28.19-.42.28-.59.58-1.16.88-1.73l-4.57-1.93c-.24,1.34-.47,2.68-.72,4.02-.11.59-.22,1.17-.38,1.74-.05.16-.13.7-.27.8.14-.31.16-.38.08-.21-.04.08-.07.15-.11.22-.08.15-.17.29-.26.43l4.57.6c.1.68.03.06.03-.07s0-.25,0-.37c0-.13.08-.43.05-.55l-.04.3c.02-.09.03-.18.05-.27.13-.64.32-1.27.52-1.9.42-1.3.84-2.6,1.27-3.89s-.47-2.78-1.75-3.08c-1.37-.31-2.64.41-3.08,1.75-.46,1.42-.94,2.83-1.38,4.25-.2.66-.38,1.32-.48,2-.17,1.11-.17,2.05-.01,3.16.13.96,1.22,1.68,2.08,1.79,1.01.14,1.94-.34,2.49-1.19.77-1.21,1.16-2.61,1.41-4.01s.5-2.79.75-4.19c.22-1.24-.23-2.44-1.45-2.95-1.09-.46-2.54-.08-3.12,1.02-.43.82-.85,1.64-1.22,2.49-.23.54-.46,1.08-.64,1.63-.03.11-.07.21-.1.32-.09.25-.06.19.09-.17.84-1.36,2.92-.76,3.44.74l-.25,1.93c.81-1.89,1.62-3.77,2.43-5.66.23-.53.38-1,.3-1.59-.07-.52-.29-1.07-.69-1.44-.88-.81-1.97-.86-3.03-.39-.58.26-1.09.77-1.43,1.3-.05.07-.1.15-.13.23,1.19-.66,1.49-.91.92-.75-.19.03-.37.09-.55.14-.86.23-1.7.54-2.52.86-1.7.67-3.39,1.39-5.09,2.09-.63.26-1.14.54-1.49,1.15-.31.54-.45,1.33-.25,1.93.38,1.16,1.78,2.28,3.08,1.75h0Z"/>
    <line class="st7" x1="151.98" y1="401.51" x2="653.43" y2="404.32"/>
    <path class="st26" d="M353.43,299.62c-1.97,14.65-3.93,29.3-5.9,43.95-.11.79,1.14.79,1.25,0,1.97-14.65,3.93-29.3,5.9-43.95.11-.79-1.14-.79-1.25,0h0Z"/>
    <path class="st26" d="M354.39,305.04c-1.51.72-1.69,2.61-1.98,4.07-.45,2.21-.84,4.44-1.18,6.68-.68,4.53-1.12,9.09-1.32,13.66-.27,6.19-.45,14.4,5.58,18.09.69.42,1.32-.66.63-1.08-5.58-3.41-5.21-11.34-4.96-17.01.18-4.14.56-8.27,1.14-12.37.27-1.92.59-3.83.95-5.73.18-.95.37-1.9.57-2.85.19-.87.31-1.94,1.21-2.37.73-.35.09-1.42-.63-1.08h0Z"/>
    <path class="st26" d="M362.28,306.63c-2.22,7.99-4.44,15.98-6.66,23.97-2.06,7.42-4.55,15.08-3.24,22.86.13.79,1.34.46,1.21-.33-1.32-7.84,1.43-15.69,3.5-23.15s4.27-15.35,6.4-23.02c.22-.78-.99-1.11-1.21-.33h0Z"/>
    <path class="st26" d="M435.25,277.95l2.55.53c.33.1.66.12,1,.04.33-.02.64-.11.93-.3.29-.16.53-.37.7-.64.22-.24.37-.52.45-.85l.09-.66c0-.45-.12-.87-.34-1.26-.34-.53-.86-1.02-1.49-1.15l-2.55-.53c-.33-.1-.66-.12-1-.04-.33.02-.64.11-.93.3-.29.16-.53.37-.7.64-.22.24-.37.52-.45.85l-.09.66c0,.45.12.87.34,1.26.34.53.86,1.02,1.49,1.15h0Z"/>
    <path class="st26" d="M430.17,371.28c-1.22,2.35-2.23,4.82-3.02,7.35-.24.77.97,1.1,1.21.33.75-2.43,1.72-4.79,2.89-7.05.37-.71-.71-1.35-1.08-.63h0Z"/>
    <path class="st28" d="M384.31,173.22c.18.99-.49,2.26-.84,3.17-.38.97-.82,1.91-1.3,2.83-.95,1.82-2.08,3.57-3.38,5.16-2.61,3.19-5.8,5.81-9.44,7.75-1.12.6-.57,2.32.63,2.33,7.87.08,15.91-1.19,22.9-4.98,6.06-3.28,11.03-8.39,13.69-14.79.62-1.48-1.8-2.13-2.41-.66-5.56,13.38-20.84,18.07-34.17,17.93l.63,2.33c4.14-2.21,7.75-5.28,10.62-8.99,1.4-1.82,2.63-3.77,3.61-5.84s2.29-4.58,1.88-6.9c-.28-1.58-2.69-.91-2.41.66h0Z"/>
    <path class="st24" d="M342.39,223.11c-1.48,13.73-3.18,27.45-4.32,41.21s-1.28,27.56-.45,41.33c.47,7.8,1.28,15.57,2.36,23.31.19,1.34,1.9,2.07,3.08,1.75,1.44-.4,1.93-1.73,1.75-3.08-1.88-13.51-2.77-27.17-2.71-40.81.06-13.54,1.33-26.95,2.78-40.4.84-7.77,1.67-15.53,2.51-23.3.14-1.34-1.25-2.5-2.5-2.5-1.47,0-2.35,1.15-2.5,2.5h0Z"/>
    <path class="st24" d="M435.39,270.9c2.45.04,4.89.08,7.34.12.22,0,.98-.04,1,.08,0-.06-.38-.34-.38-.34-.12-.04.11-.23-.04.09-.17.35-.09,1.16-.14,1.57-.06.56-.13,1.11-.2,1.66-.64,4.78-1.67,9.51-2.99,14.15-.88,3.1,3.94,4.42,4.82,1.33,1.6-5.62,2.71-11.35,3.37-17.15.16-1.43.25-2.86-.48-4.16-.8-1.43-2.33-2.02-3.87-2.18-2.77-.28-5.65-.13-8.43-.18-3.22-.05-3.22,4.95,0,5h0Z"/>
    <path class="st24" d="M441.8,327.09c2.64-3.93,3.72-8.75,5.07-13.23,1.51-5,3.01-9.99,4.52-14.99.93-3.09-3.89-4.41-4.82-1.33-1.46,4.84-2.91,9.68-4.37,14.52-1.27,4.22-2.22,8.81-4.71,12.51-1.8,2.68,2.53,5.18,4.32,2.52h0Z"/>
    <g>
      <path class="st26" d="M345.94,204.74c-6.29,17.72-10.48,36.16-12.48,54.85-1.01,9.39-1.46,18.85-1.35,28.29s.44,18.46,2.2,27.43c.94,4.8,2.44,9.5,4.83,13.79s5.64,8.2,8.99,11.86c.54.59,1.43-.29.88-.88-2.99-3.26-5.85-6.66-8.13-10.47s-3.87-8.07-4.89-12.44c-2.07-8.83-2.41-18.15-2.59-27.18-.38-18.45,1.39-36.93,5.25-54.97,2.18-10.16,5.02-20.16,8.5-29.95.27-.76-.94-1.09-1.21-.33h0Z"/>
      <g>
        <path class="st1" d="M397.09,147.39c2.41,5.36,7.02,13.38,15.98,19.35,11.11,7.4,21.47,6.7,26.69,8.65,12.34,4.6,19.79,32.82-.9,135.39l23.43,4.99c14.77-83.41,12.12-148.24-7.61-166.52-13.58-12.59-27.39-13.56-27.39-13.56-13.84-.97-24.58,6.19-28.59,9.19"/>
        <path class="st14" d="M431.67,152.33c-3.06,5.99-8.77,14.9-19.31,21.19-13.06,7.81-24.78,6.38-30.83,8.29-9.69,3.07-11.15,13.77-12.98,19.28-6.72,20.15-5.12,70.26,5.87,135.82-8.97,1.43-17.93,2.87-26.9,4.3-11.75-96.41-4.86-170.5,18.64-190.24,16.18-13.59,31.91-13.87,31.91-13.87,15.77,0,27.53,8.58,31.91,12.25"/>
        <path class="st24" d="M384.54,252.68c-3.7,2.53-5.81,6.31-7.79,10.21-.94,1.83-1.89,3.65-3.05,5.35.08-.12.58-.04.09-.16-.24-.06-.69.08-.94.11-.71.08-1.42.16-2.13.24-.63.07-1.26.14-1.89.22-.39.05-.79.09-1.18.14-.15.02-.79.02-.61.08l1.49,1.15-.15-.26.34,1.26c-.25-3.18.1-6.53.33-9.7s.59-6.52,1.06-9.76c.8-5.55,1.63-11.56-1.51-16.58-1.7-2.72-6.03-.21-4.32,2.52,2.12,3.38,1.72,7.53,1.21,11.32-.67,4.98-1.32,9.94-1.6,14.96-.07,1.23-.12,2.47-.15,3.7s-.21,2.63.02,3.86c.6,3.29,4.09,2.42,6.48,2.14s5.34-.06,7.06-1.81c1.32-1.35,2.23-3.31,3.09-4.97,1.78-3.41,3.37-7.46,6.67-9.71,1.11-.76,1.61-2.2.9-3.42-.65-1.1-2.3-1.66-3.42-.9h0Z"/>
        <path class="st24" d="M429.21,258.41c-.18,3.5.3,7.08,1.51,10.37.61,1.67,1.29,3.93,3.19,4.51.77.24,1.45.01,2.21.02s1.58.33,2.32.55c3.67,1.06,7.35,2.12,11.02,3.19,2.66.77,5.4,1.52,7.19,3.78l2.43-4.18c-2.76-1.16-5.52-2.37-8.04-3.99s-4.62-3.65-7.01-5.36c-1.98-1.41-4.06-2.72-5.85-4.38-.95-.88-4.11-3.87-2.87-5.25.69-.77,1.78-1.27,2.62-1.87,1.26-.91,2.49-1.87,3.67-2.89,2.03-1.76,3.89-3.72,5.56-5.83,3.61-4.55,6.08-9.6,8.17-15,2.18-5.65,4.04-11.68,7.82-16.52l-4.18-1.1c1.96,8.08,2.26,16.4,2.28,24.69,0,4.23.01,8.46-.04,12.69-.05,3.95-.23,7.93-1.2,11.77s-2.61,7.28-5.38,10.03l4.18,2.43c4.93-17.81,6.88-36.42,5.7-54.86-.17-2.68-4.25-3.56-4.91-.66-1.05,4.58-2.93,8.87-5.64,12.71-1.4,1.97-3.11,3.63-4.71,5.43-1.76,1.98-3.08,4.21-4.37,6.5-1.09,1.94-2.18,3.94-3.66,5.61-1.56,1.76-3.44,2.65-5.39,3.89-2.2,1.39-4.67,3.79-3.3,6.61.52,1.07,1.43,1.99,2.18,2.91.93,1.15,1.85,2.29,2.78,3.44,1.75,2.16,3.41,5.05,6.38,5.55,1.58.27,3.23.15,4.82.16s3.31.02,4.97.03c2.76.02,3.47-4.3.66-4.91-1.87-.41-3.39-1.47-4.95-2.55-1.91-1.32-3.82-2.64-5.71-3.97-1.2-.84-2-1.65-1.36-3.16.67-1.61,2.22-2.77,3.41-3.97,5.78-5.84,9.93-13.02,13.98-20.11l-4.66-1.26c.63,5.48.02,10.95-.97,16.35-.5,2.71-1.06,5.4-1.6,8.09-.27,1.35-.55,2.71-.82,4.06-.25,1.26-.36,2.67-.84,3.87l.64-1.1.05-.05,1.26-.34c-.47.01-1.34-.59-1.81-.81-.83-.39-1.66-.8-2.47-1.21s-1.63-.84-2.44-1.28c-.6-.33-1.59-.69-2.03-1.19l.64,1.1-.08-.38v1.33c.32-1.49,1.52-3.11,2.26-4.45.86-1.54,1.75-3.05,2.69-4.55,1.86-2.99,3.87-5.88,6.01-8.68l-4.66-1.26c-.47,3.63-1.4,7.23-2.67,10.67-.61,1.66-1.32,3.28-2.12,4.86-.88,1.73-2.58,3.76-1.5,5.77.45.84,1.23,1.38,1.95,1.97.81.67,1.63,1.35,2.44,2.02,1.61,1.34,3.36,2.54,5.5,1.47,1.73-.86,2.7-2.69,3.46-4.38.82-1.82,1.43-3.7,1.76-5.67.17-1.01-.03-1.98-.9-2.63-.74-.55-1.97-.79-2.78-.2-.91.66-1.82,1.33-2.73,1.99-.69.5-1.72.99-2.25,1.63-.83.37-.43.71,1.22,1.04-.08-.24-.15-.48-.2-.73-.09-.37-.15-.74-.19-1.12-.09-.9-.06-1.81.01-2.71.32-3.96,1.69-7.99,2.95-11.74s2.92-7.41,4.56-11.06c.86-1.92,1.47-3.78,1.67-5.89.15-1.58,0-3.25.92-4.62l-4.66-1.26c.26,8.64.54,17.57-2.53,25.8-.74,1.97-1.71,3.85-2.79,5.65-.54.89-1.06,1.82-1.83,2.53s-1.67,1.2-2.53,1.74c-4.05,2.57-8.1,5.13-12.16,7.7l3.42.9c-1.77-3.56-3.58-7.1-5.44-10.61l-2.16,3.76c4.63-.46,9.2-.38,13.84-.2,2.02.08,4.09.05,6.05-.47,1-.26,1.97-.68,2.87-1.19.41-.23.83-.46,1.22-.71.48-.09.52-.14.12-.13.44.13.32-.29-.36-1.25-.21,1.33.34,2.69,1.75,3.08,1.19.33,2.86-.41,3.08-1.75.49-3.05-2.06-5.49-5.12-4.95-1.33.23-2.39,1-3.57,1.6-.95.48-2.04.71-3.09.77-2.58.16-5.16-.15-7.74-.19-3.02-.05-6.04.09-9.05.39-1.89.19-3.11,1.98-2.16,3.76,1.86,3.51,3.68,7.05,5.44,10.61.59,1.18,2.34,1.58,3.42.9,4.33-2.74,8.67-5.47,12.99-8.23,2.17-1.38,3.73-2.95,5.08-5.14,1.25-2.04,2.32-4.18,3.21-6.4,3.55-8.84,3.32-18.63,3.04-27.98-.08-2.54-3.3-3.32-4.66-1.26s-1.38,4.27-1.55,6.55c-.16,2.11-1.02,3.93-1.9,5.81-2.12,4.52-3.93,9.2-5.32,14s-2.73,9.6-1.69,14.41c.53,2.47,2.44,4.39,5.12,3.5,1.18-.39,2.13-1.23,3.12-1.95,1.04-.76,2.08-1.52,3.12-2.28l-3.67-2.82c-.2,1.17-.47,2.31-.86,3.43s-1.14,2.08-1.52,3.17c0,0-.21.25-.21.28,0,.1.81-.02.81-.02-.09-.31-1.08-.89-1.35-1.11-.5-.41-1-.83-1.5-1.24-.37-.31-1.12-.71-1.36-1.12l.34,1.26c-.17.48-.13.46.12-.04l.21-.39c.21-.39.42-.78.62-1.17.41-.78.79-1.58,1.15-2.38.79-1.74,1.5-3.51,2.11-5.31,1.19-3.5,1.93-7.09,2.4-10.75.14-1.07-.87-2.15-1.84-2.41-1.16-.32-2.14.26-2.82,1.15-2.92,3.84-5.61,7.85-8.01,12.03-.57,1-1.13,2-1.67,3.01-.58,1.09-1.33,2.24-1.69,3.43-.95,3.14,2.28,4.45,4.49,5.62s4.28,2.21,6.49,3.14c1.14.48,2.38.62,3.5-.06s1.43-1.96,1.67-3.19c1.01-5,2.08-10,2.99-15.02,1.02-5.67,1.73-11.45,1.07-17.2-.26-2.3-3.32-3.6-4.66-1.26-2.31,4.03-4.62,8.08-7.28,11.89-1.2,1.73-2.47,3.39-3.86,4.98-1.49,1.7-3.23,3.18-4.68,4.91s-2.67,4-2.49,6.41,1.57,4.07,3.45,5.45c2.07,1.52,4.22,2.94,6.33,4.4,1.9,1.31,3.86,2.55,6.14,3.05l.66-4.91c-2.65-.02-5.3,0-7.95-.05-.91-.01-1.25-.05-1.84-.73-.88-1.01-1.69-2.08-2.53-3.12-.77-.95-1.54-1.91-2.32-2.86-.36-.45-.72-.89-1.08-1.34-.21-.25-.42-.51-.62-.76-.94-1.19.54.47-.37.67.19-.04.72-.72.87-.84.32-.25.68-.45,1.03-.66.95-.56,1.95-1.06,2.86-1.69,3.77-2.62,5.94-6.59,8.16-10.49,1.17-2.07,2.48-3.86,4.12-5.59s3.09-3.43,4.42-5.33c2.88-4.12,4.91-8.85,6.03-13.74l-4.91-.66c1.15,18.03-.7,36.12-5.52,53.53-.67,2.41,2.41,4.19,4.18,2.43,5.9-5.85,7.64-14.21,7.97-22.22.19-4.46.1-8.94.11-13.41s-.02-8.93-.3-13.39c-.32-5.05-.96-10.1-2.16-15.02-.41-1.68-3.01-2.61-4.18-1.1-7.46,9.56-8.59,22.37-16.23,31.83-1.86,2.3-3.95,4.41-6.23,6.29-2.15,1.76-5.31,3.06-6.58,5.65-1.55,3.18.52,6.64,2.56,9.06,1.79,2.12,4.11,3.75,6.37,5.33,2.85,2,5.45,4.32,8.31,6.3,3.07,2.12,6.55,3.54,9.97,4.98,1,.42,2.32-.28,2.82-1.15.6-1.03.31-2.15-.39-3.03-2.67-3.37-7.14-4.41-11.07-5.55-2.4-.69-4.79-1.39-7.19-2.08-1.23-.35-2.45-.76-3.69-1.06-.62-.15-1.27-.28-1.91-.29-.28-.02-.56,0-.83.04-.92.06-.89.13.09.19l.9.9c-1.06-1.41-1.52-3.54-1.88-5.23-.41-1.92-.5-3.86-.4-5.81.17-3.22-4.83-3.21-5,0h0Z"/>
        <path class="st24" d="M379.19,189.08c9.65.32,19.31.07,28.93-.77,2.38-.21,4.77-.44,7.14-.74,2.25-.28,4.23-.89,5.42-3,1-1.78,1.06-3.97,1.31-5.94.3-2.36.6-4.72.9-7.08.32-2.53-3.54-3.3-4.66-1.26-1.25,2.27-2.48,4.56-3.75,6.81-.32.57-.65,1.26-1.19,1.66-.83.61-2.16.64-3.14.8-5.11.84-10.22,1.68-15.32,2.52-2.43.4-4.88.95-7.32,1.2-.22.02-.9-.1-1.09-.02.06-.02-.17-.05-.12-.09.14-.11.11.59.1.61-.15.67-.74.56.21.41.35-.06.97-.09,1.43-.12,5.05-.39,10.14-.33,15.13-1.31,4.73-.93,9.36-2.93,12.74-6.44,2.23-2.32-1.3-5.86-3.54-3.54-3.28,3.41-7.94,4.88-12.53,5.48-2.95.39-5.93.46-8.89.62-2.43.13-5.61-.12-7.71,1.31-2.6,1.76-2.16,5.45.28,7.14s5.78.69,8.51.24c5.92-.98,11.84-1.95,17.76-2.93,3.08-.51,5.99-.81,8-3.48,1.9-2.53,3.24-5.61,4.77-8.38l-4.66-1.26c-.26,2.04-.52,4.09-.78,6.13-.12.95-.21,1.9-.37,2.84-.08.49-.11,1.28-.46,1.66-.3.34-1.03.37-1.52.43-.98.12-1.97.22-2.95.32-2.22.23-4.43.43-6.66.6-8.64.65-17.31.82-25.97.53-3.22-.11-3.21,4.89,0,5h0Z"/>
        <path class="st28" d="M416.17,173.42c2.02,6.69,9.39,8.61,15.42,9.83.79.16,1.12-1.05.33-1.21-5.54-1.12-12.68-2.76-14.55-8.96-.23-.77-1.44-.44-1.21.33h0Z"/>
        <path class="st26" d="M363.17,309.71c-1.83,10.78.67,22.15,6.96,31.1.83,1.18,2.71,4.61,4.39,2.65.69-.8.74-2,.82-3,.12-1.58.05-3.16-.14-4.73-.77-6.22-3.21-12.11-4.4-18.25-1.44-7.46-2.24-15.07-3.26-22.6-.11-.79-1.31-.46-1.21.33.8,5.87,1.53,11.74,2.41,17.6s2.33,11.08,3.84,16.6c.75,2.73,1.4,5.51,1.54,8.35.06,1.27.1,2.65-.17,3.9-.11.51-.06.76-.62.79-.48.03-.48-.11-.76-.46-.47-.59-.93-1.2-1.36-1.82-2.85-4.05-4.92-8.61-6.13-13.4-1.39-5.46-1.64-11.18-.7-16.74.13-.79-1.07-1.12-1.21-.33h0Z"/>
        <path class="st26" d="M359.45,313.36c-2.34,6.41-3.99,13.06-4.9,19.82-.45,3.35-.97,6.92-.79,10.3.14,2.64,2.14,3.75,4.39,4.58.76.28,1.08-.93.33-1.21-1.1-.4-2.44-.88-3.09-1.94-.76-1.25-.36-3.3-.28-4.69.18-3.09.51-6.16,1.01-9.21.95-5.91,2.48-11.7,4.53-17.32.28-.76-.93-1.08-1.21-.33h0Z"/>
        <path class="st26" d="M443.35,288.74c-2.04,13.17-3.48,26.71-7.77,39.38-.54,1.6-1.16,3.17-1.78,4.75-.33.84-.65,1.93.41,2.37.82.34,1.72-.1,2.4-.55,1.11-.73,2.15-1.59,3.11-2.51,3.91-3.79,6.39-8.82,8.12-13.92,2.42-7.11,3.53-14.6,6.38-21.57.3-.74-.9-1.07-1.21-.33-4.27,10.45-4.69,22.54-11.52,31.87-1.51,2.06-3.36,4-5.51,5.38-.22.14-.62.49-.91.45-.5-.08-.17-.46-.06-.86.16-.58.47-1.15.68-1.71.58-1.5,1.11-3.03,1.6-4.56,1.79-5.65,3.01-11.47,4.02-17.3,1.19-6.83,2.18-13.7,3.24-20.55.12-.79-1.08-1.13-1.21-.33h0Z"/>
        <path class="st26" d="M452.96,295.06c.58,15.04,1.11,30.53-4.09,44.92-.26.72.75,1,1.14.48,9.97-13.1,15.33-29.46,15.07-45.92-.01-.8-1.26-.81-1.25,0,.26,16.26-5.05,32.35-14.9,45.29l1.14.48c5.23-14.48,4.72-30.1,4.13-45.25-.03-.8-1.28-.81-1.25,0h0Z"/>
        <path class="st26" d="M441.5,269.51c-.34,16.14-2.73,32.2-7.15,47.72-1.25,4.38-2.66,8.72-4.22,13-.26.71.76,1.01,1.14.48,6.39-8.86,12.79-17.77,17.57-27.62.35-.72-.73-1.36-1.08-.63-4.78,9.85-11.18,18.77-17.57,27.62l1.14.48c5.53-15.2,9.1-31.08,10.62-47.18.43-4.62.69-9.25.79-13.88.02-.8-1.23-.8-1.25,0h0Z"/>
        <path class="st26" d="M406.15,170.81c-2.41,2.57-2.7,6.1-3.87,9.27-.68,1.85-1.79,3.1-3.2,4.43-1.16,1.1-2.16,2.25-2.24,3.91-.01.26.2.54.46.6,13.49,3.05,27.48-3.76,33.29-16.32.34-.73-.74-1.36-1.08-.63-5.57,12.04-18.9,18.68-31.88,15.75l.46.6c.09-1.83,1.86-2.94,3.03-4.12,1.01-1.03,1.72-2.23,2.25-3.57,1.18-3.01,1.36-6.58,3.67-9.04.55-.59-.33-1.47-.88-.88h0Z"/>
        <path class="st26" d="M406.59,169.72c-3.28,1.24-4.62,4.48-5.91,7.49-1.64,3.84-3.89,6.91-7.47,9.17-3.96,2.5-8.56,3.64-13.14,4.36-1.34.21-2.68.38-4.03.55-.43.05-1.38.36-1.79.2-.28-.11-.75-.73-.75-.96,0-.3.28-.63.43-.89,1.24-2.12,2.71-4.13,4.13-6.13,3.28-4.6,6.84-8.98,10.65-13.16l-.98-.76c-1.98,3.35-2.47,7.3-4.28,10.71-.97,1.83-2.33,3.17-4.19,4.09s-3.93,1.56-5.56,3c-.61.53.28,1.41.88.88,1.73-1.52,4.02-2.04,5.99-3.16,1.62-.92,2.88-2.27,3.79-3.88,1.96-3.47,2.41-7.57,4.44-11.01.36-.6-.5-1.29-.98-.76-3.67,4.02-7.11,8.25-10.3,12.66-1.58,2.18-3.12,4.4-4.55,6.68-.77,1.23-1.45,3.4.54,3.86,1.07.25,2.38-.12,3.46-.26,1.3-.16,2.6-.34,3.89-.55,2.77-.45,5.54-1.06,8.17-2.05,4.03-1.51,7.8-3.93,10.34-7.46,1.38-1.91,2.17-4.11,3.13-6.24s2.13-4.32,4.42-5.19c.75-.28.42-1.49-.33-1.21h0Z"/>
        <path class="st28" d="M358.73,315.87c-2.81,5.83-5.86,12.13-5.43,18.78.34,5.24,2.76,10.53,7.54,13.09.59.32,1.36.16,1.71-.45,2.1-3.66,3.28-7.7,3.51-11.91.09-1.61-2.41-1.6-2.5,0-.21,3.77-1.29,7.38-3.17,10.65l1.71-.45c-4.21-2.25-6.21-7.03-6.33-11.64-.15-5.96,2.6-11.57,5.12-16.81.69-1.44-1.46-2.71-2.16-1.26h0Z"/>
        <path class="st24" d="M360.1,231.1c3.45,6.43,7.31,12.63,11.57,18.56,1.04,1.45,2.11,2.88,3.19,4.3.22.29.42.71.68.95.34.32-.06.17.12-.04-.36.42-.84.79-1.23,1.18-1.15,1.15-2.31,2.36-3.14,3.78-.42.72-.78,1.53-.99,2.33-.08.31-.13.63-.18.95-.03.19-.06.38-.1.57-.04.64.49.56,1.59-.23l.9.9c-.29-.37-.06-.12-.07.14,0-.28-.01-.56.01-.84.03-.37.1-.73.2-1.09.25-.95.65-1.81,1.22-2.62,1.04-1.49,2.55-2.54,4.29-3.03l-3.08-3.08c-.82,2.22-.91,4.46-.57,6.77.26,1.74,2.39,2.09,3.67,1.49,1.67-.77,2.92-1.96,4.03-3.4l-4.32-2.52c-.65,1.06-1.3,2.12-1.96,3.17-.33.53-.66,1.05-.98,1.59-.13.16-.23.34-.3.53.46-.39.79-.45.98-.17,0,0-.22-.37-.25-.48-.19-.53-.19-1.2-.27-1.75-.15-1.06-.41-2.05-.95-2.99-1.02-1.77-2.71-2.88-3.29-4.91s-.79-4.09-1.51-6.07-1.67-3.8-2.42-5.73c-.84-2.15-1.23-4.16-1.11-6.47.22-4.35.75-9.03-2.7-12.37-1.05-1.01-3.25-1.01-3.93.51-2.41,5.4,1.31,10.68,3.97,15.23s5.76,9.34,8.94,13.8c.76,1.07,1.54,2.13,2.32,3.18s1.61,2.26,2.8,2.98,2.89,1.03,4.17.28,1.72-2.39,1.63-3.73c-.2-2.88-2.42-4.14-4.43-5.76s-3.48-3.71-5.05-5.59c-3.53-4.22-6.82-8.78-8.34-14.13-.65-2.29-4.27-2.47-4.82,0-.91,4.09-1.46,8.26-1.6,12.45-.13,3.93-.11,8.19,1.82,11.74,1.73,3.18,5.19,5.48,8.88,5.03,2.01-.24,3.84-1.16,5.81-1.59s3.93-.5,5.86-.23l-1.1-4.18c-.27.28-.53.22-1.13.09-.99-.22-1.87-.7-2.77-1.13-2.4-1.17-4.8-2.34-7.2-3.51-1.21-.59-2.7-.33-3.42.9-.64,1.1-.32,2.83.9,3.42,3.06,1.49,6.08,3.11,9.21,4.45,2.62,1.12,5.76,1.57,7.95-.67,1.17-1.21.85-3.91-1.1-4.18-3.72-.52-7.39-.29-10.97.93-1.39.47-2.81,1.15-4.25.52-1.03-.45-1.82-1.4-2.34-2.36-1.5-2.76-1.23-6.42-1.13-9.45.13-3.67.61-7.29,1.41-10.88h-4.82c1.52,5.38,4.57,10.03,8.01,14.37,1.68,2.11,3.41,4.2,5.24,6.18.96,1.04,2.04,1.91,3.2,2.72.38.26.7.55,1.04.85.09.09.12.27.17.36-.04-.07.39-.7-.08-.02l1.49-1.15c.46-.12.34.13.23-.07s-.41-.42-.57-.61c-.43-.52-.82-1.1-1.23-1.65-.92-1.24-1.82-2.5-2.7-3.77-1.72-2.47-3.38-4.99-4.98-7.54s-3.13-5.15-4.6-7.78c-1-1.79-3.1-4.8-2.13-6.97l-3.93.51c2.5,2.41,1.25,6.73,1.21,9.76-.06,4.11,1.65,7.59,3.22,11.27.68,1.6,1.16,3.23,1.5,4.94.37,1.89.77,3.85,1.88,5.47.88,1.3,2.46,2.4,2.77,4,.4,2.02.41,3.91,2.04,5.4,1.76,1.61,4.47,1.82,6.12-.08,1.55-1.79,2.66-4.14,3.9-6.15.71-1.15.25-2.75-.9-3.42-1.29-.75-2.59-.18-3.42.9-.57.74-1.4,1.22-2.24,1.61l3.67,1.49c-.21-1.41.08-2.8.57-4.12.67-1.83-1.36-3.56-3.08-3.08-4.1,1.15-7.32,4.3-8.74,8.3-.65,1.84-1.12,4.48-.07,6.26,1.52,2.57,5.15,2.01,6.4-.49.49-.98.45-2.03.82-3.03.32-.85.9-1.6,1.5-2.27,1.45-1.61,3.59-3.04,3.87-5.35.31-2.52-1.73-4.45-3.11-6.31-1.48-1.99-2.92-4.02-4.3-6.08-3.17-4.7-6.09-9.55-8.77-14.54-1.52-2.84-5.84-.31-4.32,2.52h0Z"/>
        <path class="st24" d="M342.77,224.3c-3.66,14.42-6.32,29.08-8,43.86-1.55,13.61-2.19,27.38-.19,40.98,1.12,7.62,3.2,15.01,6.33,22.06.55,1.23,2.35,1.52,3.42.9,1.27-.74,1.45-2.18.9-3.42-5.32-11.98-6.98-25.22-6.92-38.23.06-13.76,1.81-27.55,4.19-41.08,1.4-7.97,3.11-15.89,5.1-23.73.79-3.12-4.03-4.45-4.82-1.33h0Z"/>
        <path class="st24" d="M440.27,318.6c4.16-8.22,8.31-16.44,12.47-24.65,1.45-2.86-2.86-5.4-4.32-2.52-4.16,8.22-8.31,16.44-12.47,24.65-1.45,2.86,2.86,5.4,4.32,2.52h0Z"/>
        <path class="st24" d="M457.73,320.73l3.7-18.98-4.91-.66c0,9.11-1.8,18.23-5.39,26.61l4.57,1.93c4.59-17.9,6.29-36.52,4.97-54.96-.1-1.35-1.08-2.5-2.5-2.5-1.28,0-2.6,1.15-2.5,2.5,1.29,18.02-.31,36.13-4.8,53.63-.31,1.2.29,2.48,1.45,2.95,1.04.42,2.63.14,3.12-1.02,3.95-9.23,6.06-19.08,6.07-29.14,0-2.74-4.36-3.5-4.91-.66l-3.7,18.98c-.26,1.32.37,2.7,1.75,3.08,1.23.34,2.82-.41,3.08-1.75h0Z"/>
      </g>
    </g>
    <g>
      <ellipse class="st8" cx="366.67" cy="205.3" rx="5.99" ry="9.06"/>
      <circle class="st8" cx="369.51" cy="207.98" r="1.53"/>
      <path class="st5" d="M367.98,203.6c-1.36,1.46-1.36,2.92,0,4.37"/>
    </g>
    <path class="st24" d="M340.95,254.13c-1.8,8.08-3.61,16.3-3.58,24.62s2.85,16.05,3.2,24.26c.2,4.76-.02,9.52-.24,14.28-.13,2.8,4.3,3.43,4.91.66,1.6-7.18,2.11-14.6,1.37-21.93-.38-3.77-1.04-7.51-2.02-11.17-.43-1.61-1.01-3.19-1.39-4.81s-.11-3.01.52-4.46c1.43-3.31,3.52-6.35,5.07-9.62s2.88-6.55,3.86-9.98c2.06-7.22,2.4-14.82,2.26-22.29-.04-2.07-.11-4.14-.19-6.2-.07-1.88-.08-3.85-.62-5.66-1.05-3.5-4.66-6.69-8.5-5.25-.75.28-1.62.86-1.75,1.75-2,14.14-4.01,28.28-6.01,42.42-.19,1.34.33,2.69,1.75,3.08,1.17.32,2.88-.4,3.08-1.75,2-14.14,4.01-28.28,6.01-42.42l-1.75,1.75c2.17-.81,2.64,2.78,2.73,4.32.19,3.45.28,6.91.29,10.36.03,6.88-.51,13.74-2.64,20.32-1.02,3.14-2.34,6.16-3.83,9.09s-3.46,5.83-4.66,8.97c-1.31,3.44-.56,6.55.45,9.93.95,3.16,1.67,6.39,2.12,9.66,1.04,7.5.69,15.2-.96,22.58l4.91.66c.39-8.2.65-16.41-.97-24.52-.79-3.95-1.75-7.83-1.93-11.87s.09-7.85.65-11.73c.67-4.61,1.68-9.17,2.69-13.71.7-3.13-4.12-4.47-4.82-1.33h0Z"/>
    <path class="st26" d="M460.43,334.91c1.31,14.6,2.2,29.23,2.67,43.87.03.8,1.28.81,1.25,0-.47-14.65-1.36-29.28-2.67-43.87-.07-.79-1.32-.8-1.25,0h0Z"/>
  </g>
  <g id="cup">
    <path class="st19" d="M236.68,362.52c-5.82.2,15.37-6.86-3.36-21.23-5.9-3.96,2.05-5.15,3.36-8.04"/>
    <path class="st19" d="M255.04,362.52c-5.82.2,15.37-6.86-3.36-21.23-5.9-3.96,2.05-5.15,3.36-8.04"/>
    <path class="st15" d="M220.46,375.12c-4.53,0-7.78,2.49-7.92,5.45-.19,3.73,4.56,8.17,10.61,8.4"/>
    <path class="st7" d="M271.81,372.32c1.74,16.44-11.49,30.14-26.04,29.79-14.23-.35-26.63-14.09-24.68-30.13l38.5.26,12.22.08Z"/>
    <path class="st28" d="M259.18,362.14c-.42-2.75-2.97-4.3-3.78-6.83-1.03-3.2,1.67-5.99,3.6-8.17s3.83-4.7,3.78-7.83c-.05-2.88-1.51-5.43-3.88-7.04-1.45-.99-5.86,1.07-3.82,2.46s3.18,4.13,2.75,6.6c-.52,2.98-3.14,5.04-4.93,7.29s-3.31,5.25-2.28,8.11c.87,2.44,3.33,4.06,3.73,6.67.28,1.83,5.14.71,4.84-1.26h0Z"/>
    <path class="st28" d="M239.84,362.14c-.42-2.75-2.97-4.3-3.78-6.83-1.03-3.2,1.67-5.99,3.6-8.17s3.83-4.7,3.78-7.83c-.05-2.88-1.51-5.43-3.88-7.04-1.45-.99-5.86,1.07-3.82,2.46s3.18,4.13,2.75,6.6c-.52,2.98-3.14,5.04-4.93,7.29s-3.31,5.25-2.28,8.11c.87,2.44,3.33,4.06,3.73,6.67.28,1.83,5.14.71,4.84-1.26h0Z"/>
  </g>
</svg>